<svg width="22" height="22" viewBox="0 0 22 22" fill="none" xmlns="http://www.w3.org/2000/svg">
<path d="M20.4267 4.08537L19.4215 5.09053L18.4499 6.06215L17.2125 7.29949C16.8768 7.32184 16.5402 7.27217 16.2253 7.15381C15.9103 7.03546 15.6243 6.85115 15.3864 6.61324C15.1485 6.37534 14.9642 6.08932 14.8458 5.77438C14.7275 5.45943 14.6778 5.12282 14.7002 4.78711L15.9375 3.54977L16.9091 2.57815L17.9143 1.57299C17.9456 1.54156 17.9633 1.49897 17.9633 1.45456C17.9633 1.41016 17.9456 1.36757 17.9143 1.33613C17.9023 1.32417 17.888 1.31689 17.874 1.30935L17.8742 1.30909L17.8716 1.30805C17.8631 1.30358 17.8543 1.29984 17.8451 1.29687C17.1297 0.975812 16.3545 0.809423 15.5704 0.808594C12.4662 0.808594 9.94971 3.32513 9.94971 6.42927C9.94971 7.02207 10.0428 7.59277 10.2128 8.12915L4.35113 13.9911C2.38943 14.0228 0.808105 15.6205 0.808105 17.59C0.808105 19.579 2.42089 21.1918 4.40989 21.1918C6.37913 21.1918 7.97709 19.6102 8.00881 17.6485L13.8708 11.7866C14.4206 11.9611 14.994 12.0498 15.5709 12.0497C18.675 12.0497 21.1916 9.53315 21.1916 6.42901C21.1916 5.61833 21.0132 4.85185 20.7036 4.15609C20.7003 4.14544 20.696 4.13515 20.6906 4.12541L20.6848 4.11189L20.683 4.11371C20.6768 4.10409 20.6724 4.09343 20.6638 4.08485C20.6322 4.05355 20.5896 4.03603 20.5451 4.03612C20.5007 4.03622 20.4581 4.05393 20.4267 4.08537ZM5.89813 17.59C5.89813 17.9848 5.74132 18.3633 5.46219 18.6425C5.18307 18.9216 4.8045 19.0784 4.40976 19.0784C4.01502 19.0784 3.63644 18.9216 3.35732 18.6425C3.0782 18.3633 2.92139 17.9848 2.92139 17.59C2.92139 17.1953 3.0782 16.8167 3.35732 16.5376C3.63644 16.2585 4.01502 16.1017 4.40976 16.1017C4.8045 16.1017 5.18307 16.2585 5.46219 16.5376C5.74132 16.8167 5.89813 17.1953 5.89813 17.59Z" fill="#F1F7F5"/>
</svg>
