<svg width="20" height="21" viewBox="0 0 20 21" fill="none" xmlns="http://www.w3.org/2000/svg">
<path fill-rule="evenodd" clip-rule="evenodd" d="M15.3625 2.33301C15.5598 2.12869 15.669 1.85504 15.6666 1.57099C15.6641 1.28694 15.5502 1.01523 15.3493 0.814371C15.1484 0.613513 14.8767 0.49958 14.5927 0.497111C14.3086 0.494643 14.035 0.603837 13.8307 0.801175L9.6165 5.01426C9.51492 5.1158 9.37717 5.17285 9.23354 5.17285C9.08991 5.17285 8.95216 5.1158 8.85058 5.01426L6.16933 2.33301C6.0694 2.22954 5.94986 2.14701 5.81769 2.09023C5.68552 2.03346 5.54336 2.00357 5.39952 2.00232C5.25567 2.00107 5.11302 2.02848 4.97988 2.08295C4.84675 2.13742 4.72579 2.21786 4.62407 2.31958C4.52236 2.4213 4.44191 2.54225 4.38744 2.67539C4.33297 2.80853 4.30556 2.95118 4.30681 3.09503C4.30806 3.23887 4.33795 3.38103 4.39472 3.5132C4.4515 3.64537 4.53403 3.76491 4.6375 3.86484L6.35567 5.58301H2.41667C1.84203 5.58301 1.29093 5.81128 0.884602 6.21761C0.478273 6.62394 0.25 7.17504 0.25 7.74967V18.583C0.25 19.1576 0.478273 19.7087 0.884602 20.1151C1.29093 20.5214 1.84203 20.7497 2.41667 20.7497H17.5833C18.158 20.7497 18.7091 20.5214 19.1154 20.1151C19.5217 19.7087 19.75 19.1576 19.75 18.583V7.74967C19.75 7.17504 19.5217 6.62394 19.1154 6.21761C18.7091 5.81128 18.158 5.58301 17.5833 5.58301H12.1125L15.3625 2.33301ZM7.25158 10.913C7.27115 10.7365 7.33194 10.5672 7.42905 10.4185C7.52617 10.2699 7.65687 10.1462 7.81062 10.0574C7.96436 9.96863 8.13683 9.91725 8.3141 9.90742C8.49137 9.89759 8.66847 9.92959 8.83108 10.0008C9.21567 10.1677 9.94475 10.5068 10.8547 11.0322C11.7647 11.5576 12.4245 12.0202 12.7614 12.2693C12.9043 12.3745 13.0205 12.5119 13.1005 12.6702C13.1806 12.8286 13.2223 13.0035 13.2223 13.181C13.2223 13.3584 13.1806 13.5334 13.1005 13.6917C13.0205 13.8501 12.9043 13.9874 12.7614 14.0926C12.4256 14.3407 11.7712 14.7989 10.8547 15.3276C9.93717 15.8584 9.2135 16.1943 8.83108 16.3611C8.66847 16.4323 8.49137 16.4643 8.3141 16.4545C8.13683 16.4447 7.96436 16.3933 7.81062 16.3045C7.65687 16.2157 7.52617 16.092 7.42905 15.9434C7.33194 15.7948 7.27115 15.6254 7.25158 15.4489C7.1705 14.6955 7.13107 13.9382 7.1335 13.1804C7.1335 12.1339 7.205 11.3301 7.25267 10.9141" fill="#F1F7F5"/>
</svg>
