<svg width="26" height="26" viewBox="0 0 26 26" fill="none" xmlns="http://www.w3.org/2000/svg">
<g clip-path="url(#clip0_850_3745)">
<path d="M0.89714 14.7301L2.66904 15.1695L4.00284 13.0752L1.46784 12.4486C1.16529 12.3729 0.845076 12.4205 0.577631 12.5809C0.310185 12.7413 0.117419 13.0014 0.0417398 13.304C-0.0339397 13.6065 0.0136662 13.9267 0.174085 14.1942C0.334503 14.4616 0.594594 14.6544 0.89714 14.7301ZM24.0254 15.0694L18.2235 20.2902L11.4024 15.0109C11.2723 14.9108 11.1226 14.839 10.963 14.8003L10.0556 14.5741L8.72054 16.6684L10.1505 17.0233L17.5566 22.7537C17.7765 22.9229 18.0486 23.01 18.3259 22.9997C18.6032 22.9895 18.8682 22.8827 19.075 22.6978L25.6114 16.8127C25.7265 16.7095 25.82 16.5846 25.8866 16.4451C25.9531 16.3056 25.9913 16.1543 25.9991 16C26.0068 15.8456 25.9839 15.6912 25.9316 15.5458C25.8794 15.4004 25.7988 15.2667 25.6946 15.1526C25.4838 14.9211 25.1899 14.7824 24.8772 14.7668C24.5645 14.7512 24.2583 14.86 24.0254 15.0694ZM11.2893 9.33376L17.6424 13.4015C17.9005 13.5664 18.2123 13.6253 18.5127 13.5657C18.8132 13.5061 19.0789 13.3327 19.2544 13.0817L25.7895 3.66706C25.878 3.54001 25.9405 3.3967 25.9733 3.24539C26.0061 3.09409 26.0086 2.93778 25.9807 2.7855C25.9527 2.63321 25.8949 2.48796 25.8106 2.35813C25.7263 2.2283 25.617 2.11646 25.4892 2.02906C25.2314 1.85093 24.9135 1.78237 24.6051 1.83842C24.2968 1.89448 24.0233 2.07058 23.8447 2.32806L17.9583 10.8054L11.5675 6.71426C11.3023 6.54471 10.9807 6.48722 10.6731 6.55436C10.3667 6.62282 10.0999 6.80976 9.93084 7.07436L0.18474 22.3715C0.0704542 22.5494 0.00635174 22.7549 -0.000794245 22.9662C-0.00794023 23.1776 0.0421356 23.3869 0.144142 23.5722C0.246149 23.7574 0.396298 23.9116 0.578724 24.0186C0.76115 24.1255 0.969079 24.1812 1.18054 24.1798C1.37948 24.1803 1.57533 24.1305 1.74988 24.035C1.92443 23.9396 2.07202 23.8015 2.17894 23.6338L11.2893 9.33376Z" fill="#F1F7F5"/>
</g>
<defs>
<clipPath id="clip0_850_3745">
<rect width="26" height="26" fill="white"/>
</clipPath>
</defs>
</svg>
