<svg width="16" height="20" viewBox="0 0 16 20" fill="none" xmlns="http://www.w3.org/2000/svg">
<path d="M14.1316 9.13333C13.8824 8.80833 13.5791 8.52667 13.2974 8.245C12.5716 7.595 11.7483 7.12917 11.0549 6.44667C9.44077 4.865 9.08327 2.25417 10.1124 0.25C9.08327 0.499167 8.1841 1.0625 7.41493 1.68C4.6091 3.93333 3.5041 7.90917 4.82576 11.3217C4.8691 11.43 4.91243 11.5383 4.91243 11.6792C4.91243 11.9175 4.74993 12.1342 4.53327 12.2208C4.2841 12.3292 4.0241 12.2642 3.81827 12.0908C3.75678 12.0393 3.70536 11.9769 3.6666 11.9067C2.44243 10.3575 2.24743 8.13667 3.07076 6.36C1.2616 7.83333 0.275765 10.325 0.416598 12.6758C0.481598 13.2175 0.546598 13.7592 0.730765 14.3008C0.882432 14.9508 1.17493 15.6008 1.49993 16.175C2.66993 18.0492 4.69577 19.3925 6.87327 19.6633C9.1916 19.9558 11.6724 19.5333 13.4491 17.93C15.4316 16.1317 16.1249 13.25 15.1066 10.78L14.9658 10.4983C14.7383 10 14.1316 9.13333 14.1316 9.13333ZM10.7083 15.9583C10.4049 16.2183 9.9066 16.5 9.5166 16.6083C8.30327 17.0417 7.08993 16.435 6.37493 15.72C7.6641 15.4167 8.43326 14.4633 8.66076 13.4992C8.84493 12.6325 8.49827 11.9175 8.35743 11.0833C8.22743 10.2817 8.2491 9.59917 8.5416 8.85167C8.74743 9.26333 8.9641 9.675 9.2241 10C10.0583 11.0833 11.3691 11.56 11.6508 13.0333C11.6941 13.185 11.7158 13.3367 11.7158 13.4992C11.7483 14.3875 11.3583 15.3625 10.7083 15.9583Z" fill="#F1F7F5"/>
</svg>
