<svg width="22" height="20" viewBox="0 0 22 20" fill="none" xmlns="http://www.w3.org/2000/svg">
<path fill-rule="evenodd" clip-rule="evenodd" d="M3.9585 2.41699C3.9585 1.98602 3.78729 1.57269 3.48254 1.26794C3.1778 0.963197 2.76447 0.791992 2.3335 0.791992C1.90252 0.791992 1.48919 0.963197 1.18445 1.26794C0.879701 1.57269 0.708496 1.98602 0.708496 2.41699V17.5837C0.708496 18.0146 0.879701 18.428 1.18445 18.7327C1.48919 19.0375 1.90252 19.2087 2.3335 19.2087H19.6668C20.0978 19.2087 20.5111 19.0375 20.8159 18.7327C21.1206 18.428 21.2918 18.0146 21.2918 17.5837C21.2918 17.1527 21.1206 16.7394 20.8159 16.4346C20.5111 16.1299 20.0978 15.9587 19.6668 15.9587H3.9585V2.41699ZM8.29183 10.0003C8.29183 9.56935 8.12063 9.15602 7.81588 8.85128C7.51113 8.54653 7.09781 8.37533 6.66683 8.37533C6.23585 8.37533 5.82253 8.54653 5.51778 8.85128C5.21303 9.15602 5.04183 9.56935 5.04183 10.0003V13.2503C5.04183 13.6813 5.21303 14.0946 5.51778 14.3994C5.82253 14.7041 6.23585 14.8753 6.66683 14.8753C7.09781 14.8753 7.51113 14.7041 7.81588 14.3994C8.12063 14.0946 8.29183 13.6813 8.29183 13.2503V10.0003ZM11.0002 2.95866C11.4311 2.95866 11.8445 3.12986 12.1492 3.43461C12.454 3.73936 12.6252 4.15268 12.6252 4.58366V13.2503C12.6252 13.6813 12.454 14.0946 12.1492 14.3994C11.8445 14.7041 11.4311 14.8753 11.0002 14.8753C10.5692 14.8753 10.1559 14.7041 9.85111 14.3994C9.54637 14.0946 9.37516 13.6813 9.37516 13.2503V4.58366C9.37516 4.15268 9.54637 3.73936 9.85111 3.43461C10.1559 3.12986 10.5692 2.95866 11.0002 2.95866ZM16.9585 7.83366C16.9585 7.40268 16.7873 6.98936 16.4825 6.68461C16.1778 6.37986 15.7645 6.20866 15.3335 6.20866C14.9025 6.20866 14.4892 6.37986 14.1844 6.68461C13.8797 6.98936 13.7085 7.40268 13.7085 7.83366V13.2503C13.7085 13.6813 13.8797 14.0946 14.1844 14.3994C14.4892 14.7041 14.9025 14.8753 15.3335 14.8753C15.7645 14.8753 16.1778 14.7041 16.4825 14.3994C16.7873 14.0946 16.9585 13.6813 16.9585 13.2503V7.83366Z" fill="#F1F7F5"/>
</svg>
