<svg width="20" height="22" viewBox="0 0 20 22" fill="none" xmlns="http://www.w3.org/2000/svg">
<path d="M5.40114 12.495V19.8942C5.40114 20.3366 5.22537 20.761 4.9125 21.0739C4.59963 21.3867 4.17528 21.5625 3.73281 21.5625H1.77198C1.55198 21.5639 1.33387 21.5218 1.1302 21.4386C0.926541 21.3554 0.741345 21.2328 0.585276 21.0777C0.429208 20.9226 0.30535 20.7382 0.220832 20.5351C0.136313 20.332 0.0928042 20.1142 0.0928088 19.8942V12.495C0.0913696 12.2741 0.13382 12.0551 0.217696 11.8507C0.301573 11.6463 0.425204 11.4607 0.581417 11.3044C0.737629 11.1482 0.923312 11.0246 1.12769 10.9407C1.33206 10.8568 1.55106 10.8144 1.77198 10.8158H3.73281C3.95289 10.8155 4.17086 10.8589 4.37411 10.9433C4.57736 11.0277 4.76187 11.1515 4.91699 11.3077C5.07211 11.4638 5.19476 11.6491 5.27786 11.8529C5.36096 12.0567 5.40286 12.2749 5.40114 12.495ZM12.6595 2.11667V19.8942C12.6595 20.1142 12.616 20.332 12.5315 20.5351C12.4469 20.7382 12.3231 20.9226 12.167 21.0777C12.0109 21.2328 11.8257 21.3554 11.6221 21.4386C11.4184 21.5218 11.2003 21.5639 10.9803 21.5625H9.01948C8.576 21.5625 8.15054 21.3871 7.83594 21.0745C7.52134 20.762 7.34317 20.3376 7.34031 19.8942V2.11667C7.34315 1.6722 7.52097 1.24675 7.83526 0.932455C8.14956 0.618164 8.57501 0.44034 9.01948 0.4375H10.9803C11.4257 0.4375 11.8528 0.614412 12.1677 0.929317C12.4826 1.24422 12.6595 1.67132 12.6595 2.11667ZM19.907 7.72833V19.8942C19.907 20.3366 19.7312 20.761 19.4183 21.0739C19.1055 21.3867 18.6811 21.5625 18.2386 21.5625H16.2778C16.0577 21.5642 15.8395 21.5223 15.6357 21.4392C15.4319 21.3561 15.2466 21.2335 15.0905 21.0784C14.9343 20.9232 14.8105 20.7387 14.7261 20.5355C14.6417 20.3322 14.5984 20.1143 14.5986 19.8942V7.72833C14.5986 7.50782 14.6421 7.28947 14.7265 7.08574C14.8108 6.88202 14.9345 6.69691 15.0905 6.54098C15.2464 6.38506 15.4315 6.26137 15.6352 6.17699C15.8389 6.0926 16.0573 6.04917 16.2778 6.04917H18.282C18.7179 6.06323 19.1312 6.24634 19.4345 6.55973C19.7377 6.87312 19.9072 7.29222 19.907 7.72833Z" fill="#F1F7F5"/>
</svg>
