<svg width="24" height="20" viewBox="0 0 24 20" fill="none" xmlns="http://www.w3.org/2000/svg">
<path d="M2.25016 10C1.0585 10 0.0834961 9.025 0.0834961 7.83333V2.41667C0.0834961 1.225 1.0585 0.25 2.25016 0.25H10.9168C12.1085 0.25 13.0835 1.225 13.0835 2.41667V7.83333C13.0835 9.025 12.1085 10 10.9168 10H8.75016V13.25L5.50016 10H2.25016ZM21.7502 16.5C22.9418 16.5 23.9168 15.525 23.9168 14.3333V8.91667C23.9168 7.725 22.9418 6.75 21.7502 6.75H15.2502V7.83333C15.2502 10.2167 13.3002 12.1667 10.9168 12.1667V14.3333C10.9168 15.525 11.8918 16.5 13.0835 16.5H15.2502V19.75L18.5002 16.5H21.7502Z" fill="#F1F7F5"/>
</svg>
