<svg width="24" height="23" viewBox="0 0 24 23" fill="none" xmlns="http://www.w3.org/2000/svg">
<path d="M21.7502 18.5837V19.667H2.25018V18.5837L4.41685 16.417V9.91699C4.41685 6.55866 6.61602 3.60116 9.83352 2.64783V2.33366C9.83352 1.75902 10.0618 1.20792 10.4681 0.801594C10.8744 0.395265 11.4255 0.166992 12.0002 0.166992C12.5748 0.166992 13.1259 0.395265 13.5322 0.801594C13.9386 1.20792 14.1669 1.75902 14.1669 2.33366V2.64783C17.3843 3.60116 19.5835 6.55866 19.5835 9.91699V16.417L21.7502 18.5837ZM14.1669 20.7503C14.1669 21.325 13.9386 21.8761 13.5322 22.2824C13.1259 22.6887 12.5748 22.917 12.0002 22.917C11.4255 22.917 10.8744 22.6887 10.4681 22.2824C10.0618 21.8761 9.83352 21.325 9.83352 20.7503M20.396 1.45616L18.8577 2.99449C19.774 3.89946 20.5016 4.97736 20.9981 6.16569C21.4946 7.35401 21.7503 8.6291 21.7502 9.91699H23.9169C23.9169 6.74283 22.6602 3.68783 20.396 1.45616ZM0.0835167 9.91699H2.25018C2.25018 7.31699 3.29018 4.82533 5.14268 2.99449L3.60435 1.45616C2.48622 2.56286 1.59918 3.88073 0.994754 5.3332C0.390333 6.78568 0.0805877 8.34378 0.0835167 9.91699Z" fill="#F1F7F5"/>
</svg>
