<svg width="22" height="16" viewBox="0 0 22 16" fill="none" xmlns="http://www.w3.org/2000/svg">
<path d="M6.125 2.3125H20.75M6.125 8H20.75M6.125 13.6875H20.75" stroke="#F1F7F5" stroke-width="2.4375" stroke-linecap="round" stroke-linejoin="round"/>
<path d="M2.0625 3.125C2.51123 3.125 2.875 2.76123 2.875 2.3125C2.875 1.86377 2.51123 1.5 2.0625 1.5C1.61377 1.5 1.25 1.86377 1.25 2.3125C1.25 2.76123 1.61377 3.125 2.0625 3.125Z" stroke="#F1F7F5" stroke-width="1.625" stroke-linecap="round" stroke-linejoin="round"/>
<path d="M2.0625 8.8125C2.51123 8.8125 2.875 8.44873 2.875 8C2.875 7.55127 2.51123 7.1875 2.0625 7.1875C1.61377 7.1875 1.25 7.55127 1.25 8C1.25 8.44873 1.61377 8.8125 2.0625 8.8125Z" stroke="#F1F7F5" stroke-width="1.625" stroke-linecap="round" stroke-linejoin="round"/>
<path d="M2.0625 14.5C2.51123 14.5 2.875 14.1362 2.875 13.6875C2.875 13.2388 2.51123 12.875 2.0625 12.875C1.61377 12.875 1.25 13.2388 1.25 13.6875C1.25 14.1362 1.61377 14.5 2.0625 14.5Z" stroke="#F1F7F5" stroke-width="1.625" stroke-linecap="round" stroke-linejoin="round"/>
</svg>
