<svg width="16" height="18" viewBox="0 0 16 18" fill="none" xmlns="http://www.w3.org/2000/svg">
<path d="M3.6665 0.333008C3.07067 0.333008 2.58317 0.820508 2.58317 1.41634V2.49967H1.49984C0.904004 2.49967 0.416504 2.98717 0.416504 3.58301V14.4163C0.416504 15.0122 0.904004 15.4997 1.49984 15.4997H2.58317V16.583C2.58317 17.1788 3.07067 17.6663 3.6665 17.6663C4.26234 17.6663 4.74984 17.1788 4.74984 16.583V15.4997H5.83317C6.429 15.4997 6.9165 15.0122 6.9165 14.4163V3.58301C6.9165 2.98717 6.429 2.49967 5.83317 2.49967H4.74984V1.41634C4.74984 0.820508 4.26234 0.333008 3.6665 0.333008ZM14.4998 4.66634H13.4165V1.41634C13.4165 0.820508 12.929 0.333008 12.3332 0.333008C11.7373 0.333008 11.2498 0.820508 11.2498 1.41634V4.66634H10.1665C9.57067 4.66634 9.08317 5.15384 9.08317 5.74967V11.1663C9.08317 11.7622 9.57067 12.2497 10.1665 12.2497H11.2498V16.583C11.2498 17.1788 11.7373 17.6663 12.3332 17.6663C12.929 17.6663 13.4165 17.1788 13.4165 16.583V12.2497H14.4998C15.0957 12.2497 15.5832 11.7622 15.5832 11.1663V5.74967C15.5832 5.15384 15.0957 4.66634 14.4998 4.66634Z" fill="#F1F7F5"/>
</svg>
