<svg width="22" height="14" viewBox="0 0 22 14" fill="none" xmlns="http://www.w3.org/2000/svg">
<path fill-rule="evenodd" clip-rule="evenodd" d="M21.8335 1.5725V5.91667C21.8335 6.1309 21.7699 6.3403 21.6509 6.51841C21.5318 6.69652 21.3627 6.83534 21.1647 6.91732C20.9668 6.99929 20.749 7.02075 20.5389 6.97896C20.3288 6.93718 20.1358 6.83404 19.9843 6.68258L18.5835 5.28183L12.8494 11.0159C12.6463 11.219 12.3708 11.3331 12.0835 11.3331C11.7963 11.3331 11.5208 11.219 11.3176 11.0159L7.7502 7.4485L2.01611 13.1826C1.81179 13.3799 1.53814 13.4891 1.2541 13.4866C0.970049 13.4842 0.698336 13.3702 0.497477 13.1694C0.296618 12.9685 0.182685 12.6968 0.180217 12.4128C0.177748 12.1287 0.286942 11.8551 0.48428 11.6507L6.98428 5.15075C7.18744 4.94766 7.46294 4.83356 7.7502 4.83356C8.03746 4.83356 8.31296 4.94766 8.51611 5.15075L12.0835 8.71817L17.0517 3.75L15.6509 2.34925C15.4995 2.19774 15.3963 2.00473 15.3546 1.79462C15.3128 1.5845 15.3342 1.36672 15.4162 1.16879C15.4982 0.970866 15.637 0.801689 15.8151 0.682648C15.9932 0.563607 16.2026 0.500046 16.4169 0.5H20.7502L20.8022 0.501083C21.0789 0.513316 21.3403 0.631489 21.5323 0.831135C21.7243 1.03078 21.8321 1.29661 21.8335 1.57358" fill="#F1F7F5"/>
</svg>
