<svg width="22" height="15" viewBox="0 0 22 15" fill="none" xmlns="http://www.w3.org/2000/svg">
<path d="M5.58317 3.75H0.166504V1.58333H5.58317V3.75ZM5.58317 7H0.166504V9.16667H5.58317V7ZM20.3057 14.5833L16.1565 10.4342C15.2898 10.9975 14.2715 11.3333 13.1665 11.3333C10.1765 11.3333 7.74984 8.90667 7.74984 5.91667C7.74984 2.92667 10.1765 0.5 13.1665 0.5C16.1565 0.5 18.5832 2.92667 18.5832 5.91667C18.5832 7.02167 18.2473 8.04 17.684 8.89583L21.8332 13.0558L20.3057 14.5833ZM16.4165 5.91667C16.4165 4.12917 14.954 2.66667 13.1665 2.66667C11.379 2.66667 9.9165 4.12917 9.9165 5.91667C9.9165 7.70417 11.379 9.16667 13.1665 9.16667C14.954 9.16667 16.4165 7.70417 16.4165 5.91667ZM0.166504 14.5833H10.9998V12.4167H0.166504V14.5833Z" fill="#F1F7F5"/>
</svg>
