<svg width="28" height="31" viewBox="0 0 28 31" fill="none" xmlns="http://www.w3.org/2000/svg">
<path d="M13.9987 0.599609C11.015 0.599609 8.15354 1.78487 6.04376 3.89466C3.93397 6.00444 2.74871 8.86592 2.74871 11.8496V17.8521L0.338711 23.8871C0.263228 24.0766 0.235281 24.2818 0.257308 24.4846C0.279335 24.6874 0.350668 24.8817 0.465079 25.0506C0.579491 25.2195 0.733504 25.3579 0.913676 25.4536C1.09385 25.5493 1.2947 25.5994 1.49871 25.5996H8.99871C8.99871 28.3696 11.2287 30.5996 13.9987 30.5996C16.7687 30.5996 18.9987 28.3696 18.9987 25.5996H26.4987C26.7027 25.5994 26.9036 25.5493 27.0837 25.4536C27.2639 25.3579 27.4179 25.2195 27.5323 25.0506C27.6468 24.8817 27.7181 24.6874 27.7401 24.4846C27.7621 24.2818 27.7342 24.0766 27.6587 23.8871L25.2487 17.8496V11.8496C25.2487 8.86592 24.0634 6.00444 21.9537 3.89466C19.8439 1.78487 16.9824 0.599609 13.9987 0.599609ZM16.4987 25.5996C16.4987 26.9896 15.3887 28.0996 13.9987 28.0996C12.6087 28.0996 11.4987 26.9896 11.4987 25.5996H16.4987ZM5.24871 11.8496C5.24871 9.52896 6.17058 7.30337 7.81153 5.66243C9.45247 4.02148 11.6781 3.09961 13.9987 3.09961C16.3194 3.09961 18.545 4.02148 20.1859 5.66243C21.8268 7.30337 22.7487 9.52896 22.7487 11.8496V18.0946C22.7491 18.2531 22.7797 18.41 22.8387 18.5571L24.6537 23.0996H3.34371L5.15871 18.5571C5.21776 18.41 5.2483 18.2531 5.24871 18.0946V11.8496Z" fill="#B1DBCD"/>
</svg>
