<svg width="34" height="33" viewBox="0 0 34 33" fill="none" xmlns="http://www.w3.org/2000/svg">
<path d="M27.4154 10.6667C29.9467 10.6667 31.9987 8.61464 31.9987 6.08333C31.9987 3.55203 29.9467 1.5 27.4154 1.5C24.8841 1.5 22.832 3.55203 22.832 6.08333C22.832 8.61464 24.8841 10.6667 27.4154 10.6667Z" stroke="#B1DBCD" stroke-width="2.5" stroke-linecap="round" stroke-linejoin="round"/>
<path d="M16.1667 1.5H12.6667C8.93333 1.5 7.06667 1.5 5.64 2.22667C4.38564 2.86581 3.36581 3.88564 2.72667 5.14C2 6.56667 2 8.43333 2 12.1667V20.8333C2 24.5667 2 26.4333 2.72667 27.86C3.36581 29.1144 4.38564 30.1342 5.64 30.7733C7.06667 31.5 8.93333 31.5 12.6667 31.5H21.3333C25.0667 31.5 26.9333 31.5 28.36 30.7733C29.6144 30.1342 30.6342 29.1144 31.2733 27.86C32 26.4333 32 24.5667 32 20.8333V17.3333" stroke="#B1DBCD" stroke-width="2.5" stroke-linecap="round" stroke-linejoin="round"/>
</svg>
