<svg width="19" height="16" viewBox="0 0 19 16" fill="none" xmlns="http://www.w3.org/2000/svg">
<path d="M1.625 2.71271C2.62063 2.29646 4.04825 1.84758 5.4365 1.70808C6.93275 1.55733 8.20175 1.77896 8.9375 2.55408V13.5183C7.88562 12.9221 6.5525 12.84 5.32288 12.9637C3.99538 13.0987 2.65663 13.4823 1.625 13.8761V2.71271ZM10.0625 2.55408C10.7983 1.77896 12.0673 1.55733 13.5635 1.70808C14.9518 1.84758 16.3794 2.29646 17.375 2.71271V13.8761C16.3422 13.4823 15.0046 13.0976 13.6771 12.9648C12.4464 12.84 11.1144 12.921 10.0625 13.5183V2.55408ZM9.5 1.53708C8.39187 0.584207 6.78538 0.442457 5.32288 0.588707C3.61963 0.760832 1.90062 1.34471 0.829625 1.83183C0.731355 1.87653 0.648022 1.94855 0.589574 2.03932C0.531125 2.13008 0.50003 2.23575 0.5 2.34371V14.7187C0.500026 14.8128 0.523667 14.9054 0.568757 14.988C0.613847 15.0707 0.678944 15.1406 0.758087 15.1916C0.83723 15.2425 0.927888 15.2728 1.02176 15.2796C1.11562 15.2864 1.2097 15.2695 1.29537 15.2306C2.28763 14.7806 3.88625 14.2395 5.43538 14.0831C7.0205 13.9233 8.34912 14.181 9.06125 15.0697C9.11396 15.1354 9.18074 15.1884 9.25668 15.2249C9.33262 15.2613 9.41577 15.2802 9.5 15.2802C9.58423 15.2802 9.66738 15.2613 9.74332 15.2249C9.81925 15.1884 9.88604 15.1354 9.93875 15.0697C10.6509 14.181 11.9795 13.9233 13.5635 14.0831C15.1138 14.2395 16.7135 14.7806 17.7046 15.2306C17.7903 15.2695 17.8844 15.2864 17.9782 15.2796C18.0721 15.2728 18.1628 15.2425 18.2419 15.1916C18.3211 15.1406 18.3862 15.0707 18.4312 14.988C18.4763 14.9054 18.5 14.8128 18.5 14.7187V2.34371C18.5 2.23575 18.4689 2.13008 18.4104 2.03932C18.352 1.94855 18.2686 1.87653 18.1704 1.83183C17.0994 1.34471 15.3804 0.760832 13.6771 0.588707C12.2146 0.441332 10.6081 0.584207 9.5 1.53708Z" fill="#F1F7F5"/>
</svg>
