<svg width="46" height="42" viewBox="0 0 46 42" fill="none" xmlns="http://www.w3.org/2000/svg">
<path d="M9.10449 31.3496H11.917V34.1621H6.29199V6.03711H3.47949V36.9746H11.917V39.7871H0.666992V3.22461H6.29199V0.412109H14.7295C16.0186 0.412109 17.2563 0.609863 18.4429 1.00537C19.6294 1.40088 20.7354 1.99414 21.7607 2.78516C22.7715 1.99414 23.8701 1.40088 25.0566 1.00537C26.2432 0.609863 27.4883 0.412109 28.792 0.412109H37.2295V3.22461H42.8545V21.2202L40.042 19.9458V6.03711H37.2295V18.6714L34.417 17.375V3.22461H28.792C27.752 3.22461 26.7559 3.40039 25.8037 3.75195C24.8516 4.10352 23.9727 4.62354 23.167 5.31201V18.6714L20.3545 19.9458V5.31201C19.5635 4.63818 18.6919 4.12549 17.7397 3.77393C16.7876 3.42236 15.7842 3.23926 14.7295 3.22461H9.10449V31.3496ZM40.042 36.9526L30.1982 41.8965L20.3545 36.9526C20.3545 36.4253 20.3618 35.8687 20.3765 35.2827C20.3911 34.6968 20.4497 34.1035 20.5522 33.5029C20.6548 32.9023 20.8013 32.3384 20.9917 31.811C21.1821 31.2837 21.4458 30.793 21.7827 30.3389L17.542 28.4053V41.1934H14.7295V27.1309L30.1982 20.0996L45.667 27.1309L38.6138 30.3389L38.7896 30.5806C39.0972 31.0347 39.3315 31.5254 39.4927 32.0527C39.6538 32.5801 39.7783 33.1147 39.8662 33.6567C39.9541 34.1987 40.0054 34.7554 40.02 35.3267C40.0347 35.8979 40.042 36.4399 40.042 36.9526ZM30.1982 23.1758L21.519 27.1309L30.1982 31.0859L38.8774 27.1309L30.1982 23.1758ZM30.1982 38.7544L37.2295 35.2168C37.2148 34.8359 37.1855 34.4917 37.1416 34.1841C37.0977 33.8765 37.0171 33.5762 36.8999 33.2832C36.7827 32.9902 36.6655 32.7046 36.5483 32.4263C36.4312 32.1479 36.2627 31.8403 36.043 31.5034L30.1982 34.1621L24.3535 31.5034C24.1338 31.855 23.958 32.1699 23.8262 32.4482C23.6943 32.7266 23.5771 33.0049 23.4746 33.2832C23.3721 33.5615 23.3062 33.8545 23.2769 34.1621C23.2476 34.4697 23.2183 34.8286 23.189 35.2388L30.1982 38.7544Z" fill="#B1DBCD"/>
</svg>
