<svg width="36" height="30" viewBox="0 0 36 30" fill="none" xmlns="http://www.w3.org/2000/svg">
<path d="M21.4316 12.5671L19.6649 11.7504C19.5194 11.6841 19.3961 11.5774 19.3096 11.4429C19.2231 11.3084 19.1771 11.1519 19.1771 10.9921C19.1771 10.8322 19.2231 10.6757 19.3096 10.5412C19.3961 10.4068 19.5194 10.3 19.6649 10.2337L21.4316 9.41706L22.2482 7.66706C22.3145 7.52157 22.4213 7.39822 22.5557 7.31172C22.6902 7.22522 22.8467 7.17923 23.0066 7.17923C23.1665 7.17923 23.323 7.22522 23.4574 7.31172C23.5919 7.39822 23.6986 7.52157 23.7649 7.66706L24.5816 9.43372L26.3316 10.2504C26.4771 10.3167 26.6004 10.4234 26.6869 10.5579C26.7734 10.6923 26.8194 10.8488 26.8194 11.0087C26.8194 11.1686 26.7734 11.3251 26.6869 11.4596C26.6004 11.594 26.4771 11.7008 26.3316 11.7671L24.5649 12.5837L23.7482 14.3337C23.682 14.4792 23.5752 14.6026 23.4408 14.6891C23.3063 14.7756 23.1498 14.8216 22.9899 14.8216C22.83 14.8216 22.6735 14.7756 22.5391 14.6891C22.4046 14.6026 22.2979 14.4792 22.2316 14.3337L21.4316 12.5671ZM5.41491 17.6671L6.23158 15.9004L7.99824 15.0837C8.14373 15.0174 8.26708 14.9107 8.35358 14.7762C8.44008 14.6418 8.48607 14.4853 8.48607 14.3254C8.48607 14.1655 8.44008 14.009 8.35358 13.8745C8.26708 13.7401 8.14373 13.6333 7.99824 13.5671L6.23158 12.7504L5.41491 11.0004C5.35067 10.8551 5.24559 10.7315 5.11244 10.6448C4.97929 10.5581 4.82381 10.5119 4.66491 10.5119C4.50601 10.5119 4.35053 10.5581 4.21738 10.6448C4.08423 10.7315 3.97915 10.8551 3.91491 11.0004L3.09824 12.7671L1.33158 13.5837C1.18609 13.65 1.06274 13.7568 0.976239 13.8912C0.889742 14.0257 0.84375 14.1822 0.84375 14.3421C0.84375 14.5019 0.889742 14.6584 0.976239 14.7929C1.06274 14.9274 1.18609 15.0341 1.33158 15.1004L3.09824 15.9171L3.91491 17.6671C4.19824 18.3171 5.13158 18.3171 5.41491 17.6671ZM12.9316 9.31706L13.9816 6.98373L16.3149 5.93372C16.4604 5.86744 16.5838 5.7607 16.6702 5.62624C16.7567 5.49178 16.8027 5.33527 16.8027 5.17539C16.8027 5.01551 16.7567 4.85901 16.6702 4.72455C16.5838 4.59009 16.4604 4.48335 16.3149 4.41706L13.9816 3.36706L12.9316 1.03372C12.8653 0.888234 12.7585 0.764884 12.6241 0.678387C12.4896 0.59189 12.3331 0.545898 12.1732 0.545898C12.0134 0.545898 11.8569 0.59189 11.7224 0.678387C11.5879 0.764884 11.4812 0.888234 11.4149 1.03372L10.3649 3.36706L8.03158 4.41706C7.88609 4.48335 7.76274 4.59009 7.67624 4.72455C7.58974 4.85901 7.54375 5.01551 7.54375 5.17539C7.54375 5.33527 7.58974 5.49178 7.67624 5.62624C7.76274 5.7607 7.88609 5.86744 8.03158 5.93372L10.3649 6.98373L11.4149 9.31706C11.6982 9.96706 12.6316 9.96706 12.9316 9.31706ZM35.2316 9.78372C35.0714 9.62404 34.8804 9.49863 34.6702 9.41513C34.46 9.33163 34.235 9.29178 34.0089 9.29802C33.7828 9.30426 33.5604 9.35644 33.3551 9.45141C33.1498 9.54637 32.966 9.68212 32.8149 9.85039L22.1649 21.8171L16.6816 16.3337C16.5274 16.1792 16.3442 16.0566 16.1426 15.973C15.941 15.8894 15.7249 15.8463 15.5066 15.8463C15.2883 15.8463 15.0722 15.8894 14.8705 15.973C14.6689 16.0566 14.4858 16.1792 14.3316 16.3337L4.26491 26.4171C3.58158 27.1004 3.58158 28.2337 4.26491 28.9171C4.94824 29.6004 6.08158 29.6004 6.76491 28.9171L15.5149 20.1504L20.9316 25.5671C21.6149 26.2504 22.7149 26.2171 23.3482 25.5004L35.2982 12.0504C35.8816 11.4004 35.8482 10.4004 35.2316 9.78372Z" fill="#B1DBCD"/>
</svg>
