<svg width="40" height="41" viewBox="0 0 40 41" fill="none" xmlns="http://www.w3.org/2000/svg">
<path d="M30 20.5007C29.0833 20.5007 28.3333 21.2507 28.3333 22.1673V30.8673C28.3333 31.784 27.5833 32.534 26.6667 32.534H10C9.08333 32.534 8.33333 31.784 8.33333 30.8673V13.834C8.33333 12.9173 9.08333 12.1673 10 12.1673H18.3333C19.25 12.1673 20 11.4173 20 10.5007C20 9.58398 19.25 8.83398 18.3333 8.83398H8.33333C6.5 8.83398 5 10.334 5 12.1673V32.1673C5 34.0007 6.5 35.5007 8.33333 35.5007H28.3333C30.1667 35.5007 31.6667 34.0007 31.6667 32.1673V22.1673C31.6667 21.2507 30.9167 20.5007 30 20.5007ZM35.0333 8.83398H31.6667V5.46732C31.6667 4.56732 30.9333 3.83398 30.0333 3.83398H29.9833C29.0667 3.83398 28.3333 4.56732 28.3333 5.46732V8.83398H24.9833C24.0833 8.83398 23.35 9.56732 23.3333 10.4673V10.5173C23.3333 11.434 24.0667 12.1673 24.9833 12.1673H28.3333V15.5173C28.3333 16.4173 29.0667 17.1673 29.9833 17.1507H30.0333C30.9333 17.1507 31.6667 16.4173 31.6667 15.5173V12.1673H35.0333C35.9333 12.1673 36.6667 11.434 36.6667 10.534V10.4673C36.6667 9.56732 35.9333 8.83398 35.0333 8.83398Z" fill="#B1DBCD"/>
<path d="M23.3346 15.5H13.3346C12.418 15.5 11.668 16.25 11.668 17.1667C11.668 18.0833 12.418 18.8333 13.3346 18.8333H23.3346C24.2513 18.8333 25.0013 18.0833 25.0013 17.1667C25.0013 16.25 24.2513 15.5 23.3346 15.5ZM23.3346 20.5H13.3346C12.418 20.5 11.668 21.25 11.668 22.1667C11.668 23.0833 12.418 23.8333 13.3346 23.8333H23.3346C24.2513 23.8333 25.0013 23.0833 25.0013 22.1667C25.0013 21.25 24.2513 20.5 23.3346 20.5ZM23.3346 25.5H13.3346C12.418 25.5 11.668 26.25 11.668 27.1667C11.668 28.0833 12.418 28.8333 13.3346 28.8333H23.3346C24.2513 28.8333 25.0013 28.0833 25.0013 27.1667C25.0013 26.25 24.2513 25.5 23.3346 25.5Z" fill="#B1DBCD"/>
</svg>
