<svg width="14" height="10" viewBox="0 0 14 10" fill="none" xmlns="http://www.w3.org/2000/svg">
<path d="M13.5306 1.63091L5.5306 9.63091C5.46092 9.70083 5.37813 9.75631 5.28696 9.79416C5.1958 9.83202 5.09806 9.8515 4.99935 9.8515C4.90064 9.8515 4.8029 9.83202 4.71173 9.79416C4.62057 9.75631 4.53778 9.70083 4.4681 9.63091L0.968098 6.13091C0.898333 6.06115 0.842993 5.97832 0.805236 5.88717C0.76748 5.79602 0.748047 5.69832 0.748047 5.59966C0.748047 5.501 0.76748 5.4033 0.805236 5.31215C0.842993 5.221 0.898333 5.13818 0.968098 5.06841C1.03786 4.99865 1.12069 4.94331 1.21184 4.90555C1.30299 4.86779 1.40069 4.84836 1.49935 4.84836C1.59801 4.84836 1.69571 4.86779 1.78686 4.90555C1.87801 4.94331 1.96083 4.99865 2.0306 5.06841L4.99997 8.03779L12.4693 0.56966C12.6102 0.428764 12.8013 0.349609 13.0006 0.349609C13.1999 0.349609 13.391 0.428764 13.5318 0.56966C13.6727 0.710556 13.7519 0.901653 13.7519 1.10091C13.7519 1.30017 13.6727 1.49126 13.5318 1.63216L13.5306 1.63091Z" fill="#F1F7F5"/>
</svg>
