<svg width="30" height="31" viewBox="0 0 30 31" fill="none" xmlns="http://www.w3.org/2000/svg">
<path d="M15 18.0996C15.663 18.0996 16.2989 17.8362 16.7678 17.3674C17.2366 16.8985 17.5 16.2627 17.5 15.5996C17.5 14.9366 17.2366 14.3007 16.7678 13.8318C16.2989 13.363 15.663 13.0996 15 13.0996C14.337 13.0996 13.7011 13.363 13.2322 13.8318C12.7634 14.3007 12.5 14.9366 12.5 15.5996C12.5 16.2627 12.7634 16.8985 13.2322 17.3674C13.7011 17.8362 14.337 18.0996 15 18.0996ZM6.25 15.5996C6.25 13.279 7.17187 11.0534 8.81282 9.41243C10.4538 7.77148 12.6794 6.84961 15 6.84961C17.3206 6.84961 19.5462 7.77148 21.1872 9.41243C22.8281 11.0534 23.75 13.279 23.75 15.5996C23.75 17.9203 22.8281 20.1458 21.1872 21.7868C19.5462 23.4277 17.3206 24.3496 15 24.3496C12.6794 24.3496 10.4538 23.4277 8.81282 21.7868C7.17187 20.1458 6.25 17.9203 6.25 15.5996ZM15 9.34961C13.3424 9.34961 11.7527 10.0081 10.5806 11.1802C9.40848 12.3523 8.75 13.942 8.75 15.5996C8.75 17.2572 9.40848 18.8469 10.5806 20.019C11.7527 21.1911 13.3424 21.8496 15 21.8496C16.6576 21.8496 18.2473 21.1911 19.4194 20.019C20.5915 18.8469 21.25 17.2572 21.25 15.5996C21.25 13.942 20.5915 12.3523 19.4194 11.1802C18.2473 10.0081 16.6576 9.34961 15 9.34961ZM0 15.6009C0 7.31586 6.71625 0.599609 15.0012 0.599609C23.2862 0.599609 30.0037 7.31586 30.0037 15.6009C30.0037 23.8859 23.2875 30.6034 15 30.6034C6.71625 30.6034 0 23.8884 0 15.6009ZM15.0012 3.09961C8.0975 3.09961 2.5 8.69711 2.5 15.6009C2.5 22.5059 8.0975 28.1034 15.0012 28.1034C21.9062 28.1034 27.5037 22.5059 27.5037 15.6009C27.5037 8.69711 21.9075 3.09961 15.0012 3.09961Z" fill="#B1DBCD"/>
</svg>
