<svg width="41" height="41" viewBox="0 0 41 41" fill="none" xmlns="http://www.w3.org/2000/svg">
<path d="M12.1109 11.584C14.085 9.6034 16.685 8.36878 19.4675 8.09066C22.25 7.81254 25.0429 8.50813 27.3699 10.0588C29.697 11.6096 31.4142 13.9194 32.2287 16.5945C33.0432 19.2697 32.9046 22.1445 31.8366 24.729C30.7686 27.3134 28.8373 29.4474 26.3719 30.7671C23.9065 32.0868 21.0597 32.5106 18.3168 31.9662C15.5739 31.4218 13.1047 29.9428 11.3303 27.7816C9.55582 25.6203 8.58592 22.9104 8.58594 20.114C8.58594 19.7825 8.45424 19.4646 8.21982 19.2301C7.9854 18.9957 7.66746 18.864 7.33594 18.864C7.00442 18.864 6.68647 18.9957 6.45205 19.2301C6.21763 19.4646 6.08594 19.7825 6.08594 20.114C6.0858 23.4891 7.25631 26.7597 9.3979 29.3682C11.5395 31.9768 14.5196 33.7618 17.83 34.4189C21.1405 35.076 24.5764 34.5645 27.5519 32.9716C30.5274 31.3787 32.8584 28.8031 34.1473 25.6839C35.4362 22.5646 35.6033 19.0949 34.6201 15.8662C33.6369 12.6376 31.5642 9.84989 28.7555 7.97847C25.9468 6.10705 22.576 5.26776 19.2177 5.60369C15.8594 5.93963 12.7216 7.43 10.3393 9.82069C10.2973 9.86234 10.2583 9.9069 10.2226 9.95402L8.1276 7.85736C8.01556 7.74506 7.8738 7.66708 7.71897 7.63257C7.56415 7.59806 7.40268 7.60846 7.25356 7.66254C7.10444 7.71663 6.97385 7.81215 6.87714 7.93788C6.78043 8.06362 6.72161 8.21435 6.7076 8.37236L6.11927 14.854C6.10827 14.9756 6.12413 15.0982 6.16573 15.2129C6.20732 15.3277 6.27363 15.432 6.35996 15.5183C6.4463 15.6047 6.55055 15.671 6.66534 15.7126C6.78014 15.7542 6.90267 15.77 7.02427 15.759L13.5076 15.169C13.665 15.1542 13.8149 15.0949 13.9399 14.9981C14.0648 14.9012 14.1597 14.7709 14.2133 14.6222C14.267 14.4734 14.2772 14.3125 14.2428 14.1582C14.2085 14.0039 14.1309 13.8626 14.0193 13.7507L11.9726 11.704C12.0216 11.6674 12.0678 11.6273 12.1109 11.584Z" fill="#0ADD9C"/>
<path d="M21.918 11.7793C21.918 11.4478 21.7863 11.1298 21.5519 10.8954C21.3174 10.661 20.9995 10.5293 20.668 10.5293C20.3364 10.5293 20.0185 10.661 19.7841 10.8954C19.5497 11.1298 19.418 11.4478 19.418 11.7793V20.1126C19.4179 20.3246 19.4717 20.533 19.5743 20.7185C19.6769 20.9039 19.825 21.0602 20.0046 21.1726L25.0046 24.2976C25.2858 24.4736 25.6253 24.5306 25.9485 24.4562C26.1085 24.4194 26.2597 24.3514 26.3934 24.2561C26.5272 24.1608 26.6409 24.0402 26.728 23.901C26.8151 23.7618 26.8739 23.6068 26.9011 23.4448C26.9283 23.2829 26.9234 23.1172 26.8865 22.9571C26.8497 22.7971 26.7817 22.6459 26.6865 22.5122C26.5912 22.3784 26.4705 22.2647 26.3313 22.1776L21.918 19.4193V11.7793Z" fill="#0ADD9C"/>
</svg>
