<svg width="46" height="42" viewBox="0 0 46 42" fill="none" xmlns="http://www.w3.org/2000/svg">
<path d="M11.7417 33.8578C14.8093 36.9255 18.8457 38.8344 23.1631 39.2594C27.4805 39.6845 31.8117 38.5992 35.4186 36.1886C39.0255 33.778 41.6848 30.1913 42.9435 26.0396C44.2022 21.8879 43.9822 17.4283 42.3212 13.4206C40.6602 9.41292 37.6608 6.10524 33.8342 4.06123C30.0077 2.01722 25.5907 1.36337 21.3361 2.21111C17.0814 3.05884 13.2524 5.35571 10.5015 8.71028C7.75064 12.0649 6.24811 16.2695 6.25 20.6078V24.7661" stroke="#B1DBCD" stroke-width="3.33333" stroke-linecap="round" stroke-linejoin="round"/>
<path d="M2.08301 20.5999L6.24967 24.7666L10.4163 20.5999M22.9163 12.2666V22.6833H33.333" stroke="#B1DBCD" stroke-width="3.33333" stroke-linecap="round" stroke-linejoin="round"/>
</svg>
