<svg width="40" height="40" viewBox="0 0 40 40" fill="none" xmlns="http://www.w3.org/2000/svg">
<path d="M20 4C18.076 4 16.56 4.484 15.39 5.284C14.3328 6.01915 13.4961 7.02871 12.97 8.204C12.31 9.616 12.098 11.078 12.03 12.034C10.738 12.13 9.41 12.44 8.32 13.168C6.884 14.126 6 15.708 6 18C6 20.292 6.884 21.874 8.32 22.832C9.686 23.742 11.42 24 13 24H27C28.562 24 30.3 23.776 31.672 22.88C33.124 21.932 34 20.34 34 18C34 15.708 33.116 14.126 31.68 13.168C30.588 12.44 29.264 12.13 27.968 12.034C27.902 11.078 27.69 9.616 27.032 8.202C26.5042 7.02778 25.6678 6.01865 24.612 5.282C23.44 4.486 21.922 4 20 4ZM14 13C14 12.514 14.006 10.708 14.78 9.048C15.16 8.234 15.714 7.484 16.516 6.936C17.316 6.39 18.424 6 20 6C21.576 6 22.686 6.39 23.484 6.936C24.286 7.484 24.838 8.234 25.218 9.048C25.994 10.708 26 12.514 26 13C26 13.2652 26.1054 13.5196 26.2929 13.7071C26.4804 13.8946 26.7348 14 27 14C28.42 14 29.686 14.242 30.57 14.832C31.382 15.374 32 16.292 32 18C32 19.776 31.376 20.684 30.578 21.206C29.698 21.782 28.438 22 27 22H13C11.58 22 10.314 21.758 9.43 21.168C8.616 20.626 8 19.708 8 18C8 16.292 8.616 15.374 9.43 14.832C10.314 14.242 11.58 14 13 14C13.2652 14 13.5196 13.8946 13.7071 13.7071C13.8946 13.5196 14 13.2652 14 13ZM16 34C17.0609 34 18.0783 33.5786 18.8284 32.8284C19.5786 32.0783 20 31.0609 20 30C20 28.9391 19.5786 27.9217 18.8284 27.1716C18.0783 26.4214 17.0609 26 16 26C14.9391 26 13.9217 26.4214 13.1716 27.1716C12.4214 27.9217 12 28.9391 12 30C12 31.0609 12.4214 32.0783 13.1716 32.8284C13.9217 33.5786 14.9391 34 16 34ZM16 32C15.4696 32 14.9609 31.7893 14.5858 31.4142C14.2107 31.0391 14 30.5304 14 30C14 29.4696 14.2107 28.9609 14.5858 28.5858C14.9609 28.2107 15.4696 28 16 28C16.5304 28 17.0391 28.2107 17.4142 28.5858C17.7893 28.9609 18 29.4696 18 30C18 30.5304 17.7893 31.0391 17.4142 31.4142C17.0391 31.7893 16.5304 32 16 32ZM7 36C7.79565 36 8.55871 35.6839 9.12132 35.1213C9.68393 34.5587 10 33.7956 10 33C10 32.2044 9.68393 31.4413 9.12132 30.8787C8.55871 30.3161 7.79565 30 7 30C6.20435 30 5.44129 30.3161 4.87868 30.8787C4.31607 31.4413 4 32.2044 4 33C4 33.7956 4.31607 34.5587 4.87868 35.1213C5.44129 35.6839 6.20435 36 7 36ZM7 34C6.73478 34 6.48043 33.8946 6.29289 33.7071C6.10536 33.5196 6 33.2652 6 33C6 32.7348 6.10536 32.4804 6.29289 32.2929C6.48043 32.1054 6.73478 32 7 32C7.26522 32 7.51957 32.1054 7.70711 32.2929C7.89464 32.4804 8 32.7348 8 33C8 33.2652 7.89464 33.5196 7.70711 33.7071C7.51957 33.8946 7.26522 34 7 34Z" fill="#B1DBCD"/>
</svg>
