<svg width="40" height="24" viewBox="0 0 40 24" fill="none" xmlns="http://www.w3.org/2000/svg">
<path d="M11.3359 22.1133V20.4466C11.3359 18.2365 12.2139 16.1169 13.7767 14.5541C15.3395 12.9913 17.4591 12.1133 19.6693 12.1133M19.6693 12.1133C21.8794 12.1133 23.999 12.9913 25.5618 14.5541C27.1246 16.1169 28.0026 18.2365 28.0026 20.4466V22.1133M19.6693 12.1133C20.9954 12.1133 22.2671 11.5865 23.2048 10.6488C24.1425 9.71113 24.6693 8.43936 24.6693 7.11328C24.6693 5.7872 24.1425 4.51543 23.2048 3.57775C22.2671 2.64007 20.9954 2.11328 19.6693 2.11328C18.3432 2.11328 17.0714 2.64007 16.1337 3.57775C15.1961 4.51543 14.6693 5.7872 14.6693 7.11328C14.6693 8.43936 15.1961 9.71113 16.1337 10.6488C17.0714 11.5865 18.3432 12.1133 19.6693 12.1133ZM1.33594 22.1133V20.4466C1.33594 19.1205 1.86272 17.8488 2.8004 16.9111C3.73809 15.9734 5.00985 15.4466 6.33594 15.4466M6.33594 15.4466C7.21999 15.4466 8.06784 15.0954 8.69296 14.4703C9.31808 13.8452 9.66927 12.9973 9.66927 12.1133C9.66927 11.2292 9.31808 10.3814 8.69296 9.75626C8.06784 9.13114 7.21999 8.77995 6.33594 8.77995C5.45188 8.77995 4.60404 9.13114 3.97891 9.75626C3.35379 10.3814 3.0026 11.2292 3.0026 12.1133C3.0026 12.9973 3.35379 13.8452 3.97891 14.4703C4.60404 15.0954 5.45188 15.4466 6.33594 15.4466ZM38.0026 22.1133V20.4466C38.0026 19.1205 37.4758 17.8488 36.5381 16.9111C35.6005 15.9734 34.3287 15.4466 33.0026 15.4466M33.0026 15.4466C33.8867 15.4466 34.7345 15.0954 35.3596 14.4703C35.9847 13.8452 36.3359 12.9973 36.3359 12.1133C36.3359 11.2292 35.9847 10.3814 35.3596 9.75626C34.7345 9.13114 33.8867 8.77995 33.0026 8.77995C32.1185 8.77995 31.2707 9.13114 30.6456 9.75626C30.0205 10.3814 29.6693 11.2292 29.6693 12.1133C29.6693 12.9973 30.0205 13.8452 30.6456 14.4703C31.2707 15.0954 32.1185 15.4466 33.0026 15.4466Z" stroke="#0ADD9C" stroke-width="2.5" stroke-linecap="round" stroke-linejoin="round"/>
</svg>
