<svg width="40" height="24" viewBox="0 0 40 24" fill="none" xmlns="http://www.w3.org/2000/svg">
<path d="M11.668 22V20.3333C11.668 18.1232 12.5459 16.0036 14.1087 14.4408C15.6715 12.878 17.7912 12 20.0013 12M20.0013 12C22.2114 12 24.3311 12.878 25.8939 14.4408C27.4567 16.0036 28.3346 18.1232 28.3346 20.3333V22M20.0013 12C21.3274 12 22.5992 11.4732 23.5368 10.5355C24.4745 9.59785 25.0013 8.32608 25.0013 7C25.0013 5.67392 24.4745 4.40215 23.5368 3.46447C22.5992 2.52678 21.3274 2 20.0013 2C18.6752 2 17.4034 2.52678 16.4658 3.46447C15.5281 4.40215 15.0013 5.67392 15.0013 7C15.0013 8.32608 15.5281 9.59785 16.4658 10.5355C17.4034 11.4732 18.6752 12 20.0013 12ZM1.66797 22V20.3333C1.66797 19.0073 2.19475 17.7355 3.13243 16.7978C4.07012 15.8601 5.34189 15.3333 6.66797 15.3333M6.66797 15.3333C7.55202 15.3333 8.39987 14.9821 9.02499 14.357C9.65011 13.7319 10.0013 12.8841 10.0013 12C10.0013 11.1159 9.65011 10.2681 9.02499 9.64298C8.39987 9.01786 7.55202 8.66667 6.66797 8.66667C5.78391 8.66667 4.93607 9.01786 4.31095 9.64298C3.68582 10.2681 3.33464 11.1159 3.33464 12C3.33464 12.8841 3.68582 13.7319 4.31095 14.357C4.93607 14.9821 5.78391 15.3333 6.66797 15.3333ZM38.3346 22V20.3333C38.3346 19.0073 37.8078 17.7355 36.8702 16.7978C35.9325 15.8601 34.6607 15.3333 33.3346 15.3333M33.3346 15.3333C34.2187 15.3333 35.0665 14.9821 35.6917 14.357C36.3168 13.7319 36.668 12.8841 36.668 12C36.668 11.1159 36.3168 10.2681 35.6917 9.64298C35.0665 9.01786 34.2187 8.66667 33.3346 8.66667C32.4506 8.66667 31.6027 9.01786 30.9776 9.64298C30.3525 10.2681 30.0013 11.1159 30.0013 12C30.0013 12.8841 30.3525 13.7319 30.9776 14.357C31.6027 14.9821 32.4506 15.3333 33.3346 15.3333Z" stroke="#B1DBCD" stroke-width="2.5" stroke-linecap="round" stroke-linejoin="round"/>
</svg>
