<svg width="16" height="17" viewBox="0 0 16 17" fill="none" xmlns="http://www.w3.org/2000/svg">
<path d="M14.1538 0.200195H1.84615C1.35652 0.200195 0.886947 0.410909 0.540726 0.785982C0.194505 1.16105 0 1.66976 0 2.2002V11.5335C0 12.064 0.194505 12.5727 0.540726 12.9477C0.886947 13.3228 1.35652 13.5335 1.84615 13.5335H7.38462V14.8669H5.53846C5.37525 14.8669 5.21873 14.9371 5.10332 15.0621C4.98791 15.1871 4.92308 15.3567 4.92308 15.5335C4.92308 15.7103 4.98791 15.8799 5.10332 16.0049C5.21873 16.13 5.37525 16.2002 5.53846 16.2002H10.4615C10.6247 16.2002 10.7813 16.13 10.8967 16.0049C11.0121 15.8799 11.0769 15.7103 11.0769 15.5335C11.0769 15.3567 11.0121 15.1871 10.8967 15.0621C10.7813 14.9371 10.6247 14.8669 10.4615 14.8669H8.61539V13.5335H14.1538C14.6435 13.5335 15.1131 13.3228 15.4593 12.9477C15.8055 12.5727 16 12.064 16 11.5335V2.2002C16 1.66976 15.8055 1.16105 15.4593 0.785982C15.1131 0.410909 14.6435 0.200195 14.1538 0.200195ZM1.84615 1.53353H14.1538C14.3171 1.53353 14.4736 1.60377 14.589 1.72879C14.7044 1.85382 14.7692 2.02338 14.7692 2.2002V8.86686H1.23077V2.2002C1.23077 2.02338 1.2956 1.85382 1.41101 1.72879C1.52642 1.60377 1.68294 1.53353 1.84615 1.53353ZM14.1538 12.2002H1.84615C1.68294 12.2002 1.52642 12.13 1.41101 12.0049C1.2956 11.8799 1.23077 11.7103 1.23077 11.5335V10.2002H14.7692V11.5335C14.7692 11.7103 14.7044 11.8799 14.589 12.0049C14.4736 12.13 14.3171 12.2002 14.1538 12.2002Z" fill="#093F2E"/>
</svg>
