<svg width="17" height="17" viewBox="0 0 17 17" fill="none" xmlns="http://www.w3.org/2000/svg">
<path d="M14.6538 0.200195H2.34615C1.85652 0.200195 1.38695 0.410909 1.04073 0.785982C0.694505 1.16105 0.5 1.66976 0.5 2.2002V11.5335C0.5 12.064 0.694505 12.5727 1.04073 12.9477C1.38695 13.3228 1.85652 13.5335 2.34615 13.5335H7.88462V14.8669H6.03846C5.87525 14.8669 5.71873 14.9371 5.60332 15.0621C5.48791 15.1871 5.42308 15.3567 5.42308 15.5335C5.42308 15.7103 5.48791 15.8799 5.60332 16.0049C5.71873 16.13 5.87525 16.2002 6.03846 16.2002H10.9615C11.1247 16.2002 11.2813 16.13 11.3967 16.0049C11.5121 15.8799 11.5769 15.7103 11.5769 15.5335C11.5769 15.3567 11.5121 15.1871 11.3967 15.0621C11.2813 14.9371 11.1247 14.8669 10.9615 14.8669H9.11539V13.5335H14.6538C15.1435 13.5335 15.6131 13.3228 15.9593 12.9477C16.3055 12.5727 16.5 12.064 16.5 11.5335V2.2002C16.5 1.66976 16.3055 1.16105 15.9593 0.785982C15.6131 0.410909 15.1435 0.200195 14.6538 0.200195ZM2.34615 1.53353H14.6538C14.8171 1.53353 14.9736 1.60377 15.089 1.72879C15.2044 1.85382 15.2692 2.02338 15.2692 2.2002V8.86686H1.73077V2.2002C1.73077 2.02338 1.7956 1.85382 1.91101 1.72879C2.02642 1.60377 2.18294 1.53353 2.34615 1.53353ZM14.6538 12.2002H2.34615C2.18294 12.2002 2.02642 12.13 1.91101 12.0049C1.7956 11.8799 1.73077 11.7103 1.73077 11.5335V10.2002H15.2692V11.5335C15.2692 11.7103 15.2044 11.8799 15.089 12.0049C14.9736 12.13 14.8171 12.2002 14.6538 12.2002Z" fill="#F1F7F5"/>
</svg>
