<svg width="36" height="33" viewBox="0 0 36 33" fill="none" xmlns="http://www.w3.org/2000/svg">
<path d="M6.75047 2.41529e-06C6.51852 1.01986e-05 6.29115 0.0645534 6.09379 0.186411C5.89644 0.308269 5.73688 0.482635 5.63297 0.690002L0.632966 10.69C0.524834 10.9053 0.481227 11.1473 0.507396 11.3868C0.533564 11.6263 0.628392 11.8531 0.780466 12.04L17.0305 32.04C17.1477 32.1842 17.2956 32.3005 17.4634 32.3803C17.6311 32.4602 17.8146 32.5016 18.0005 32.5016C18.1863 32.5016 18.3698 32.4602 18.5376 32.3803C18.7054 32.3005 18.8533 32.1842 18.9705 32.04L35.2205 12.04C35.3729 11.8534 35.4682 11.6267 35.4948 11.3872C35.5215 11.1476 35.4783 10.9055 35.3705 10.69L30.3705 0.690002C30.2664 0.482255 30.1064 0.307637 29.9086 0.185754C29.7107 0.0638701 29.4828 -0.000454304 29.2505 2.41529e-06H6.75047ZM3.77297 10L7.52297 2.5H12.648L10.773 10H3.77297ZM4.37547 12.5H10.833L14.8655 25.41L4.37547 12.5ZM13.4505 12.5H22.5505L18.0005 27.0575L13.4505 12.5ZM25.1705 12.5H31.6255L21.1355 25.41L25.1705 12.5ZM32.228 10H25.228L23.353 2.5H28.478L32.228 10ZM22.6505 10H13.3505L15.2255 2.5H20.7755L22.6505 10Z" fill="#B1DBCD"/>
</svg>
