<svg width="41" height="36" viewBox="0 0 41 36" fill="none" xmlns="http://www.w3.org/2000/svg">
<path d="M39.6691 11.0099L20.9191 1.00995C20.7383 0.913648 20.5365 0.863281 20.3316 0.863281C20.1267 0.863281 19.925 0.913648 19.7441 1.00995L0.994141 11.0099C0.794147 11.1165 0.626892 11.2755 0.510266 11.4698C0.39364 11.6641 0.332031 11.8865 0.332031 12.1131C0.332031 12.3397 0.39364 12.5621 0.510266 12.7564C0.626892 12.9507 0.794147 13.1096 0.994141 13.2162L5.33164 15.5303V23.0959C5.33019 23.7099 5.55618 24.3027 5.96602 24.7599C8.01289 27.0396 12.5988 30.8631 20.3316 30.8631C22.8956 30.8843 25.4404 30.4199 27.8316 29.4943V34.6131C27.8316 34.9446 27.9633 35.2625 28.1978 35.497C28.4322 35.7314 28.7501 35.8631 29.0816 35.8631C29.4132 35.8631 29.7311 35.7314 29.9655 35.497C30.1999 35.2625 30.3316 34.9446 30.3316 34.6131V28.2865C31.9617 27.3456 33.4347 26.1557 34.6973 24.7599C35.1071 24.3027 35.3331 23.7099 35.3316 23.0959V15.5303L39.6691 13.2162C39.8691 13.1096 40.0364 12.9507 40.153 12.7564C40.2696 12.5621 40.3312 12.3397 40.3312 12.1131C40.3312 11.8865 40.2696 11.6641 40.153 11.4698C40.0364 11.2755 39.8691 11.1165 39.6691 11.0099ZM20.3316 28.3631C13.5707 28.3631 9.59414 25.0599 7.83164 23.0959V16.8631L19.7441 23.2162C19.925 23.3125 20.1267 23.3629 20.3316 23.3629C20.5365 23.3629 20.7383 23.3125 20.9191 23.2162L27.8316 19.5303V26.7709C25.8629 27.6896 23.3816 28.3631 20.3316 28.3631ZM32.8316 23.0896C32.0824 23.9211 31.244 24.6678 30.3316 25.3162V18.1959L32.8316 16.8631V23.0896ZM29.7066 15.6974L29.6723 15.6771L20.9223 11.0099C20.6303 10.8608 20.2915 10.8324 19.9788 10.9307C19.6661 11.029 19.4045 11.2462 19.2504 11.5356C19.0963 11.8249 19.062 12.1632 19.155 12.4775C19.2479 12.7919 19.4606 13.0572 19.7473 13.2162L27.0504 17.1131L20.3316 20.6959L4.23789 12.1131L20.3316 3.53026L36.4254 12.1131L29.7066 15.6974Z" fill="#0ADD9C"/>
</svg>
