<svg width="34" height="24" viewBox="0 0 34 24" fill="none" xmlns="http://www.w3.org/2000/svg">
<path d="M32 11.75C32 13.75 25.2833 21.75 17 21.75C8.71667 21.75 2 13.75 2 11.75C2 9.75 8.71667 1.75 17 1.75C25.2833 1.75 32 9.75 32 11.75Z" stroke="#0ADD9C" stroke-width="3.33333"/>
<path d="M22 11.75C22 13.0761 21.4732 14.3479 20.5355 15.2855C19.5979 16.2232 18.3261 16.75 17 16.75C15.6739 16.75 14.4021 16.2232 13.4645 15.2855C12.5268 14.3479 12 13.0761 12 11.75C12 10.4239 12.5268 9.15215 13.4645 8.21447C14.4021 7.27678 15.6739 6.75 17 6.75C18.3261 6.75 19.5979 7.27678 20.5355 8.21447C21.4732 9.15215 22 10.4239 22 11.75Z" stroke="#0ADD9C" stroke-width="3.33333"/>
</svg>
