<svg width="38" height="31" viewBox="0 0 38 31" fill="none" xmlns="http://www.w3.org/2000/svg">
<path d="M37.6937 1.48266C37.6759 1.17686 37.5464 0.888259 37.3298 0.671654C37.1131 0.45505 36.8245 0.325522 36.5187 0.307664C28.4312 -0.161086 21.9375 2.29829 19.1469 6.90454C17.3031 9.94985 17.3062 13.6483 19.1219 17.1764C18.0883 18.4066 17.333 19.8457 16.9078 21.3952L14.3656 18.8436C15.5875 16.292 15.5406 13.6327 14.2094 11.4233C12.1469 8.0186 7.38593 6.1936 1.47499 6.54048C1.16919 6.55833 0.880584 6.68786 0.66398 6.90447C0.447375 7.12107 0.317848 7.40967 0.299989 7.71548C-0.048448 13.6264 1.77811 18.3874 5.1828 20.4499C6.30628 21.1364 7.59739 21.4998 8.91405 21.4999C10.192 21.484 11.4501 21.1812 12.5953 20.6139L16.5016 24.5202V28.9999C16.5016 29.3314 16.6332 29.6493 16.8677 29.8837C17.1021 30.1182 17.42 30.2499 17.7516 30.2499C18.0831 30.2499 18.401 30.1182 18.6354 29.8837C18.8699 29.6493 19.0016 29.3314 19.0016 28.9999V24.392C18.9959 22.4034 19.6726 20.473 20.9187 18.9233C22.5265 19.7635 24.3095 20.2132 26.1234 20.2358C27.8771 20.2414 29.5983 19.7624 31.0969 18.8514C35.7031 16.0639 38.1687 9.57016 37.6937 1.48266ZM6.47186 18.3124C4.07499 16.8608 2.71874 13.4249 2.75155 8.99985C7.17655 8.96235 10.6125 10.3233 12.0641 12.7202C12.8219 13.9702 12.9453 15.428 12.4484 16.9295L8.63437 13.1155C8.39804 12.891 8.08335 12.7676 7.7574 12.7718C7.43145 12.776 7.12002 12.9073 6.88952 13.1378C6.65902 13.3683 6.52768 13.6797 6.5235 14.0057C6.51933 14.3316 6.64265 14.6463 6.86718 14.8827L10.6812 18.6967C9.17968 19.1936 7.72343 19.0702 6.47186 18.3124ZM29.8016 16.7155C27.7078 17.9827 25.2469 18.0795 22.7469 17.028L31.1359 8.63735C31.3605 8.40102 31.4838 8.08634 31.4796 7.76038C31.4754 7.43443 31.3441 7.123 31.1136 6.8925C30.8831 6.662 30.5717 6.53066 30.2457 6.52649C29.9198 6.52232 29.6051 6.64564 29.3687 6.87016L20.9781 15.2499C19.9219 12.7499 20.0172 10.2874 21.2906 8.19516C23.4687 4.60141 28.6344 2.59829 35.2484 2.75298C35.3984 9.36548 33.3984 14.5374 29.8016 16.7155Z" fill="#B1DBCD"/>
</svg>
