<svg width="34" height="36" viewBox="0 0 34 36" fill="none" xmlns="http://www.w3.org/2000/svg">
<path d="M25.7554 18.8169C25.282 22.7586 22.7004 24.3336 21.5854 25.4769C20.4687 26.6236 20.6687 26.8519 20.7437 28.5336C20.7562 28.7417 20.726 28.9501 20.6549 29.146C20.5838 29.342 20.4733 29.5213 20.3303 29.6729C20.1873 29.8245 20.0147 29.9452 19.8233 30.0276C19.6318 30.11 19.4255 30.1523 19.217 30.1519H14.787C14.5786 30.1521 14.3723 30.1096 14.1809 30.0271C13.9895 29.9447 13.8169 29.824 13.6738 29.6724C13.5307 29.5209 13.42 29.3417 13.3487 29.1459C13.2773 28.95 13.2467 28.7417 13.2587 28.5336C13.2587 26.8836 13.412 26.5003 12.4187 25.4769C11.152 24.2103 8.17205 22.4219 8.17205 17.5036C8.16444 16.2819 8.40999 15.0719 8.89323 13.9499C9.37648 12.8278 10.0869 11.818 10.9798 10.9842C11.8727 10.1503 12.9286 9.51048 14.081 9.10497C15.2335 8.69946 16.4574 8.53709 17.6757 8.62809C18.894 8.71908 20.0802 9.06148 21.1596 9.63368C22.239 10.2059 23.1882 10.9955 23.9473 11.9527C24.7064 12.91 25.2589 14.0141 25.5701 15.1955C25.8813 16.3769 25.9444 17.6099 25.7554 18.8169Z" stroke="#0ADD9C" stroke-width="2.5" stroke-linecap="round" stroke-linejoin="round"/>
<path d="M14.4349 30.0602V32.5802C14.4349 33.2686 14.8182 33.8336 15.2899 33.8336H18.7116C19.1866 33.8336 19.5682 33.2669 19.5682 32.5802V30.0602M15.7016 12.4936C14.7175 12.494 13.7738 12.8853 13.0781 13.5813C12.3824 14.2773 11.9916 15.2211 11.9916 16.2052M29.2216 17.8402H32.2782M26.1449 7.82025L28.3132 5.65191M27.8116 26.3336L29.9799 28.5002M17.0016 1.96191V4.43358M5.7349 5.65025L7.88823 7.82025M4.06823 28.5002L6.22156 26.3336M4.78156 17.8402H1.72656" stroke="#0ADD9C" stroke-width="2.5" stroke-linecap="round" stroke-linejoin="round"/>
</svg>
