<svg width="31" height="35" viewBox="0 0 31 35" fill="none" xmlns="http://www.w3.org/2000/svg">
<path d="M2.87203 28.6992C2.87203 29.3906 3.43063 29.9492 4.12203 29.9492H26.5439C27.2353 29.9492 27.7939 29.3906 27.7939 28.6992V19.5977C27.7939 12.7148 22.2158 7.13672 15.333 7.13672C8.45016 7.13672 2.87203 12.7148 2.87203 19.5977V28.6992ZM5.68453 19.5977C5.68453 14.2695 10.0048 9.94922 15.333 9.94922C20.6611 9.94922 24.9814 14.2695 24.9814 19.5977V27.1367H11.1142V20.457C11.1142 20.2422 10.9384 20.0664 10.7236 20.0664H9.00484C8.79 20.0664 8.61422 20.2422 8.61422 20.457V27.1367H5.68453V19.5977ZM3.80562 9.73438L5.3525 8.1875C5.47359 8.06641 5.47359 7.86719 5.3525 7.74609L2.70016 5.09375C2.64142 5.03559 2.56211 5.00297 2.47945 5.00297C2.3968 5.00297 2.31748 5.03559 2.25875 5.09375L0.711875 6.64062C0.653718 6.69936 0.621094 6.77867 0.621094 6.86133C0.621094 6.94398 0.653718 7.0233 0.711875 7.08203L3.36422 9.73438C3.48531 9.85547 3.68062 9.85547 3.80562 9.73438ZM29.9619 6.64062L28.415 5.09375C28.3563 5.03559 28.277 5.00297 28.1943 5.00297C28.1116 5.00297 28.0323 5.03559 27.9736 5.09375L25.3213 7.74609C25.2631 7.80483 25.2305 7.88414 25.2305 7.9668C25.2305 8.04945 25.2631 8.12877 25.3213 8.1875L26.8681 9.73438C26.9892 9.85547 27.1884 9.85547 27.3095 9.73438L29.9619 7.08203C30.083 6.95703 30.083 6.76172 29.9619 6.64062ZM27.833 32.4492H2.83297C2.14156 32.4492 1.58297 33.0078 1.58297 33.6992V34.6367C1.58297 34.8086 1.72359 34.9492 1.89547 34.9492H28.7705C28.9423 34.9492 29.083 34.8086 29.083 34.6367V33.6992C29.083 33.0078 28.5244 32.4492 27.833 32.4492ZM14.2392 4.63672H16.4267C16.5986 4.63672 16.7392 4.49609 16.7392 4.32422V0.574219C16.7392 0.402344 16.5986 0.261719 16.4267 0.261719H14.2392C14.0673 0.261719 13.9267 0.402344 13.9267 0.574219V4.32422C13.9267 4.49609 14.0673 4.63672 14.2392 4.63672Z" fill="#0ADD9C"/>
</svg>
