<svg width="31" height="30" viewBox="0 0 31 30" fill="none" xmlns="http://www.w3.org/2000/svg">
<path d="M2 8.33366V5.00033C2 4.11627 2.35119 3.26842 2.97631 2.6433C3.60143 2.01818 4.44928 1.66699 5.33333 1.66699H8.66667M2 21.667V25.0003C2 25.8844 2.35119 26.7322 2.97631 27.3573C3.60143 27.9825 4.44928 28.3337 5.33333 28.3337H8.66667M22 1.66699H25.3333C26.2174 1.66699 27.0652 2.01818 27.6904 2.6433C28.3155 3.26842 28.6667 4.11627 28.6667 5.00033V8.33366M22 28.3337H25.3333C26.2174 28.3337 27.0652 27.9825 27.6904 27.3573C28.3155 26.7322 28.6667 25.8844 28.6667 25.0003V21.667M7 15.0003H23.6667" stroke="#0ADD9C" stroke-width="3.33333" stroke-linecap="round" stroke-linejoin="round"/>
</svg>
