<svg width="28" height="30" viewBox="0 0 28 30" fill="none" xmlns="http://www.w3.org/2000/svg">
<path d="M4.2337 1.93853L24.2337 4.79519C24.631 4.85178 24.9945 5.04982 25.2576 5.35293C25.5206 5.65605 25.6654 6.04388 25.6654 6.44519V23.5552C25.6654 23.9565 25.5206 24.3443 25.2576 24.6475C24.9945 24.9506 24.631 25.1486 24.2337 25.2052L4.2337 28.0619C3.99736 28.0955 3.75654 28.078 3.52755 28.0105C3.29857 27.943 3.08675 27.8272 2.90643 27.6707C2.72612 27.5143 2.58152 27.3209 2.48242 27.1037C2.38332 26.8865 2.33203 26.6506 2.33203 26.4119V3.58853C2.33203 3.3498 2.38332 3.11386 2.48242 2.89668C2.58152 2.67949 2.72612 2.48613 2.90643 2.32968C3.08675 2.17323 3.29857 2.05734 3.52755 1.98985C3.75654 1.92237 3.99736 1.90487 4.2337 1.93853Z" stroke="#B1DBCD" stroke-width="3.33333" stroke-linecap="round" stroke-linejoin="round"/>
</svg>
