<svg width="35" height="33" viewBox="0 0 35 33" fill="none" xmlns="http://www.w3.org/2000/svg">
<path d="M15.6491 0.75C15.2157 0.75 14.7824 0.85 14.3657 1L2.09907 6.08333C1.28368 6.41724 0.63426 7.06129 0.293595 7.87389C-0.0470703 8.68648 -0.0510945 9.6011 0.282407 10.4167L8.54907 30.3333C8.79325 30.9374 9.20913 31.4567 9.74527 31.827C10.2814 32.1972 10.9143 32.4023 11.5657 32.4167C11.9991 32.4167 12.4491 32.3667 12.8824 32.1667L25.1657 27.0833C25.7586 26.8317 26.2668 26.4154 26.6302 25.8836C26.9936 25.3519 27.1968 24.7271 27.2157 24.0833C27.2324 23.6667 27.1491 23.1833 26.9991 22.75L18.6657 2.83333C18.4309 2.22284 18.0174 1.6974 17.4792 1.32571C16.941 0.954014 16.3031 0.753367 15.6491 0.75ZM21.4491 0.75L27.1991 14.6667V4.08333C27.1991 3.19928 26.8479 2.35143 26.2228 1.72631C25.5976 1.10119 24.7498 0.75 23.8657 0.75M30.5491 3.31667V18.3667L34.5991 8.6C34.7651 8.19628 34.8498 7.76375 34.8483 7.32722C34.8469 6.89068 34.7592 6.45874 34.5904 6.05615C34.4217 5.65356 34.1751 5.28826 33.8648 4.98118C33.5545 4.67409 33.1867 4.43128 32.7824 4.26667M15.6491 4.03333L23.9491 24.0667L11.6324 29.1667L3.33241 9.15" fill="#B1DBCD"/>
</svg>
