<svg width="17" height="18" viewBox="0 0 17 18" fill="none" xmlns="http://www.w3.org/2000/svg">
<path d="M9.4375 13.0625C9.4375 13.2479 9.38252 13.4292 9.27951 13.5833C9.17649 13.7375 9.03007 13.8577 8.85877 13.9286C8.68746 13.9996 8.49896 14.0182 8.31711 13.982C8.13525 13.9458 7.9682 13.8565 7.83709 13.7254C7.70598 13.5943 7.61669 13.4273 7.58052 13.2454C7.54434 13.0635 7.56291 12.875 7.63387 12.7037C7.70482 12.5324 7.82499 12.386 7.97916 12.283C8.13333 12.18 8.31458 12.125 8.5 12.125C8.74864 12.125 8.9871 12.2238 9.16292 12.3996C9.33873 12.5754 9.4375 12.8139 9.4375 13.0625ZM8.5 4.625C6.77657 4.625 5.375 5.88672 5.375 7.4375V7.75C5.375 7.91576 5.44085 8.07473 5.55806 8.19194C5.67527 8.30915 5.83424 8.375 6 8.375C6.16576 8.375 6.32474 8.30915 6.44195 8.19194C6.55916 8.07473 6.625 7.91576 6.625 7.75V7.4375C6.625 6.57812 7.46641 5.875 8.5 5.875C9.5336 5.875 10.375 6.57812 10.375 7.4375C10.375 8.29688 9.5336 9 8.5 9C8.33424 9 8.17527 9.06585 8.05806 9.18306C7.94085 9.30027 7.875 9.45924 7.875 9.625V10.25C7.875 10.4158 7.94085 10.5747 8.05806 10.6919C8.17527 10.8092 8.33424 10.875 8.5 10.875C8.66576 10.875 8.82474 10.8092 8.94195 10.6919C9.05916 10.5747 9.125 10.4158 9.125 10.25V10.1938C10.55 9.93203 11.625 8.79531 11.625 7.4375C11.625 5.88672 10.2234 4.625 8.5 4.625ZM16.625 9C16.625 10.607 16.1485 12.1779 15.2557 13.514C14.3629 14.8502 13.094 15.8916 11.6093 16.5065C10.1247 17.1215 8.49099 17.2824 6.9149 16.9689C5.3388 16.6554 3.89106 15.8815 2.75476 14.7452C1.61846 13.6089 0.844628 12.1612 0.531123 10.5851C0.217618 9.00901 0.37852 7.37535 0.993482 5.8907C1.60844 4.40605 2.64985 3.1371 3.986 2.24431C5.32214 1.35152 6.89303 0.875 8.5 0.875C10.6542 0.877275 12.7195 1.73403 14.2427 3.25727C15.766 4.78051 16.6227 6.84581 16.625 9ZM15.375 9C15.375 7.64025 14.9718 6.31104 14.2164 5.18045C13.4609 4.04987 12.3872 3.16868 11.131 2.64833C9.87471 2.12798 8.49238 1.99183 7.15876 2.2571C5.82514 2.52237 4.60013 3.17716 3.63864 4.13864C2.67716 5.10013 2.02238 6.32513 1.7571 7.65875C1.49183 8.99237 1.62798 10.3747 2.14833 11.6309C2.66868 12.8872 3.54987 13.9609 4.68046 14.7164C5.81105 15.4718 7.14026 15.875 8.5 15.875C10.3227 15.8729 12.0702 15.1479 13.3591 13.8591C14.6479 12.5702 15.3729 10.8227 15.375 9Z" fill="#F1F7F5"/>
</svg>
