<svg width="34" height="34" viewBox="0 0 34 34" fill="none" xmlns="http://www.w3.org/2000/svg">
<path d="M31.9987 26.1663C31.9987 27.7134 31.3841 29.1972 30.2902 30.2911C29.1962 31.3851 27.7125 31.9997 26.1654 31.9997C24.6183 31.9997 23.1345 31.3851 22.0406 30.2911C20.9466 29.1972 20.332 27.7134 20.332 26.1663C20.332 24.6192 20.9466 23.1355 22.0406 22.0416C23.1345 20.9476 24.6183 20.333 26.1654 20.333C27.7125 20.333 29.1962 20.9476 30.2902 22.0416C31.3841 23.1355 31.9987 24.6192 31.9987 26.1663Z" stroke="#B1DBCD" stroke-width="2.5" stroke-linecap="round" stroke-linejoin="round"/>
<path d="M26.1667 20.3333H7.83333C6.28624 20.3333 4.80251 20.9479 3.70854 22.0419C2.61458 23.1358 2 24.6196 2 26.1667C2 27.7138 2.61458 29.1975 3.70854 30.2915C4.80251 31.3854 6.28624 32 7.83333 32H26.1667C27.7138 32 29.1975 31.3854 30.2915 30.2915C31.3854 29.1975 32 27.7138 32 26.1667C32 24.6196 31.3854 23.1358 30.2915 22.0419C29.1975 20.9479 27.7138 20.3333 26.1667 20.3333ZM2 7.83333C2 8.59938 2.15088 9.35792 2.44404 10.0657C2.73719 10.7734 3.16687 11.4164 3.70854 11.9581C4.25022 12.4998 4.89328 12.9295 5.60101 13.2226C6.30875 13.5158 7.06729 13.6667 7.83333 13.6667C8.59938 13.6667 9.35792 13.5158 10.0657 13.2226C10.7734 12.9295 11.4164 12.4998 11.9581 11.9581C12.4998 11.4164 12.9295 10.7734 13.2226 10.0657C13.5158 9.35792 13.6667 8.59938 13.6667 7.83333C13.6667 6.28624 13.0521 4.80251 11.9581 3.70854C10.8642 2.61458 9.38043 2 7.83333 2C6.28624 2 4.80251 2.61458 3.70854 3.70854C2.61458 4.80251 2 6.28624 2 7.83333Z" stroke="#B1DBCD" stroke-width="2.5" stroke-linecap="round" stroke-linejoin="round"/>
<path d="M7.83333 2H26.1667C26.9327 2 27.6913 2.15088 28.399 2.44404C29.1067 2.73719 29.7498 3.16687 30.2915 3.70854C30.8331 4.25022 31.2628 4.89328 31.556 5.60101C31.8491 6.30875 32 7.06729 32 7.83333C32 8.59938 31.8491 9.35792 31.556 10.0657C31.2628 10.7734 30.8331 11.4164 30.2915 11.9581C29.7498 12.4998 29.1067 12.9295 28.399 13.2226C27.6913 13.5158 26.9327 13.6667 26.1667 13.6667H7.83333C7.06729 13.6667 6.30875 13.5158 5.60101 13.2226C4.89328 12.9295 4.25022 12.4998 3.70854 11.9581C3.16687 11.4164 2.73719 10.7734 2.44404 10.0657C2.15088 9.35792 2 8.59938 2 7.83333C2 7.06729 2.15088 6.30875 2.44404 5.60101C2.73719 4.89328 3.16687 4.25022 3.70854 3.70854C4.25022 3.16687 4.89328 2.73719 5.60101 2.44404C6.30875 2.15088 7.06729 2 7.83333 2Z" stroke="#B1DBCD" stroke-width="2.5" stroke-linecap="round" stroke-linejoin="round"/>
</svg>
