<svg width="15" height="14" viewBox="0 0 15 14" fill="none" xmlns="http://www.w3.org/2000/svg">
<path d="M6.60876 7.00013H3.44611M13.5966 6.64117C13.6639 6.67393 13.7206 6.72495 13.7603 6.78841C13.7999 6.85187 13.8209 6.9252 13.8209 7.00003C13.8208 7.07486 13.7997 7.14816 13.76 7.21157C13.7202 7.27497 13.6634 7.32591 13.5961 7.35857L1.54957 13.1599C1.47754 13.1946 1.39676 13.2068 1.3177 13.195C1.23864 13.1832 1.16496 13.1479 1.10621 13.0937C1.04746 13.0395 1.00635 12.9689 0.988225 12.891C0.970096 12.8132 0.975781 12.7316 1.00454 12.6571L3.1251 7.14298C3.16045 7.05103 3.16045 6.94924 3.1251 6.85728L1.00507 1.34267C0.97656 1.26818 0.971047 1.18684 0.989238 1.10918C1.00743 1.03152 1.04849 0.961098 1.10712 0.907013C1.16574 0.852927 1.23924 0.817664 1.31811 0.805778C1.39698 0.793892 1.47761 0.80593 1.54957 0.840337L13.5966 6.64117Z" stroke="white" stroke-width="1.2749" stroke-linecap="round" stroke-linejoin="round"/>
</svg>
