<svg width="15" height="15" viewBox="0 0 15 15" fill="none" xmlns="http://www.w3.org/2000/svg">
<path d="M6.62243 7.33021H3.45978M13.6103 6.97125C13.6776 7.00401 13.7343 7.05503 13.774 7.11849C13.8136 7.18195 13.8346 7.25528 13.8345 7.33011C13.8345 7.40494 13.8134 7.47824 13.7736 7.54164C13.7339 7.60504 13.6771 7.65599 13.6098 7.68864L1.56324 13.49C1.49121 13.5247 1.41043 13.5369 1.33137 13.5251C1.25231 13.5132 1.17863 13.478 1.11988 13.4237C1.06113 13.3695 1.02003 13.2989 1.0019 13.2211C0.983768 13.1432 0.989453 13.0617 1.01821 12.9871L3.13877 7.47306C3.17412 7.38111 3.17412 7.27931 3.13877 7.18736L1.01874 1.67275C0.990232 1.59825 0.984719 1.51692 1.00291 1.43926C1.0211 1.3616 1.06216 1.29118 1.12079 1.23709C1.17941 1.18301 1.25291 1.14774 1.33178 1.13586C1.41066 1.12397 1.49128 1.13601 1.56324 1.17041L13.6103 6.97125Z" stroke="#757575" stroke-width="1.2749" stroke-linecap="round" stroke-linejoin="round"/>
</svg>
