<svg width="30" height="30" viewBox="0 0 30 30" fill="none" xmlns="http://www.w3.org/2000/svg">
<path d="M21.5013 18.3333H20.1846L19.718 17.8833C21.4078 15.9234 22.3365 13.4212 22.3346 10.8333C22.3346 8.69071 21.6993 6.59619 20.5089 4.81466C19.3185 3.03313 17.6266 1.64459 15.647 0.824643C13.6675 0.00469392 11.4893 -0.209842 9.38783 0.208164C7.28637 0.626171 5.35605 1.65795 3.84098 3.17301C2.32591 4.68808 1.29414 6.6184 0.876133 8.71986C0.458127 10.8213 0.672663 12.9995 1.49261 14.9791C2.31256 16.9586 3.7011 18.6505 5.48263 19.8409C7.26416 21.0313 9.35868 21.6667 11.5013 21.6667C14.1846 21.6667 16.6513 20.6833 18.5513 19.05L19.0013 19.5167V20.8333L27.3346 29.15L29.818 26.6667L21.5013 18.3333ZM11.5013 18.3333C7.35131 18.3333 4.00131 14.9833 4.00131 10.8333C4.00131 6.68334 7.35131 3.33334 11.5013 3.33334C15.6513 3.33334 19.0013 6.68334 19.0013 10.8333C19.0013 14.9833 15.6513 18.3333 11.5013 18.3333Z" fill="#0ADD9C"/>
</svg>
