<svg width="30" height="35" viewBox="0 0 30 35" fill="none" xmlns="http://www.w3.org/2000/svg">
<path d="M11.6518 26.0003L10.0268 26.7903C6.72682 27.7037 5.07515 28.1603 4.18515 27.1987C3.29515 26.2387 3.75515 24.4986 4.67682 21.0153L4.91349 20.1153C5.17515 19.1237 5.30682 18.6303 5.24182 18.1387C5.17515 17.6487 4.92015 17.217 4.41015 16.3553L3.94682 15.572C2.15182 12.537 1.25515 11.0203 1.85182 9.81198C2.45182 8.60532 4.15015 8.50698 7.54849 8.31198L8.42682 8.26198C9.39349 8.20532 9.87515 8.17865 10.2968 7.95365C10.7168 7.72865 11.0285 7.33365 11.6518 6.54032L12.2185 5.82032C14.4118 3.03198 15.5085 1.63865 16.7685 1.85365C18.0285 2.06865 18.6185 3.74865 19.7968 7.11032L20.1018 7.98032C20.4368 8.93532 20.6052 9.41365 20.9302 9.76365C21.2568 10.117 21.7035 10.3037 22.5985 10.6753L23.4135 11.0153C26.5635 12.3253 28.1385 12.982 28.3168 14.3203C28.4702 15.4636 27.5218 16.4586 25.5835 18.137" stroke="#B1DBCD" stroke-width="2.5"/>
<path d="M20.4227 16.3149C18.7777 14.3483 17.9561 13.3649 17.0094 13.5149C16.0644 13.6666 15.6227 14.8533 14.7394 17.2266L14.5094 17.8399C14.2594 18.5149 14.1327 18.8516 13.8877 19.0999C13.6444 19.3483 13.3077 19.4799 12.6377 19.7433L12.0261 19.9816C9.6644 20.9066 8.48273 21.3699 8.34773 22.3149C8.2144 23.2599 9.2144 24.0633 11.2161 25.6666L11.7327 26.0833C12.3027 26.5383 12.5877 26.7666 12.7511 27.0783C12.9177 27.3899 12.9427 27.7516 12.9944 28.4733L13.0427 29.1299C13.2261 31.6683 13.3194 32.9383 14.1811 33.3716C15.0427 33.8049 16.1044 33.1133 18.2261 31.7333L18.7744 31.3749C19.3777 30.9833 19.6794 30.7866 20.0244 30.7299C20.3711 30.6749 20.7244 30.7666 21.4261 30.9499L22.0677 31.1166C24.5427 31.7599 25.7811 32.0833 26.4494 31.4049C27.1161 30.7266 26.7711 29.4983 26.0811 27.0383L25.9011 26.4049C25.7061 25.7049 25.6077 25.3549 25.6561 25.0099C25.7061 24.6633 25.8977 24.3599 26.2794 23.7499L26.6294 23.1966C27.9744 21.0549 28.6461 19.9849 28.1961 19.1333C27.7477 18.2816 26.4744 18.2116 23.9261 18.0749L23.2661 18.0383C22.5427 17.9999 22.1794 17.9799 21.8644 17.8216C21.5477 17.6633 21.3144 17.3833 20.8477 16.8233L20.4227 16.3149Z" stroke="#B1DBCD" stroke-width="2.5"/>
</svg>
