<svg width="36" height="37" viewBox="0 0 36 37" fill="none" xmlns="http://www.w3.org/2000/svg">
<path d="M13.2541 7.51398C15.3658 3.72732 16.4208 1.83398 17.9991 1.83398C19.5774 1.83398 20.6324 3.72732 22.7441 7.51398L23.2908 8.49398C23.8908 9.57065 24.1908 10.109 24.6574 10.464C25.1241 10.819 25.7074 10.9506 26.8741 11.214L27.9341 11.454C32.0341 12.3823 34.0824 12.8457 34.5708 14.414C35.0574 15.9807 33.6608 17.6157 30.8658 20.884L30.1424 21.729C29.3491 22.6573 28.9508 23.1223 28.7724 23.6956C28.5941 24.2706 28.6541 24.8906 28.7741 26.129L28.8841 27.2573C29.3058 31.619 29.5174 33.799 28.2408 34.7673C26.9641 35.7373 25.0441 34.8523 21.2074 33.0856L20.2124 32.629C19.1224 32.1256 18.5774 31.8756 17.9991 31.8756C17.4208 31.8756 16.8758 32.1256 15.7858 32.629L14.7924 33.0856C10.9541 34.8523 9.03409 35.7356 7.75909 34.769C6.48076 33.799 6.69242 31.619 7.11409 27.2573L7.22409 26.1306C7.34409 24.8906 7.40409 24.2706 7.22409 23.6973C7.04742 23.1223 6.64909 22.6573 5.85576 21.7306L5.13242 20.884C2.33742 17.6173 0.940756 15.9823 1.42742 14.414C1.91576 12.8457 3.96576 12.3806 8.06576 11.454L9.12576 11.214C10.2908 10.9506 10.8724 10.819 11.3408 10.464C11.8074 10.109 12.1074 9.57065 12.7074 8.49398L13.2541 7.51398Z" stroke="#B1DBCD" stroke-width="2.5"/>
</svg>
