<svg width="16" height="17" viewBox="0 0 16 17" fill="none" xmlns="http://www.w3.org/2000/svg">
<path d="M14.4285 7.35418L10.5735 5.86469L9.17158 1.76875C9.08414 1.51313 8.92477 1.2923 8.71512 1.13625C8.50547 0.980195 8.25569 0.896484 7.99971 0.896484C7.74373 0.896484 7.49395 0.980195 7.28429 1.13625C7.07464 1.2923 6.91527 1.51313 6.82783 1.76875L5.42596 5.86469L1.57096 7.35418C1.33037 7.44709 1.12253 7.61642 0.975659 7.83917C0.828786 8.06193 0.75 8.32732 0.75 8.5993C0.75 8.87128 0.828786 9.13667 0.975659 9.35942C1.12253 9.58218 1.33037 9.75151 1.57096 9.84442L5.42596 11.3339L6.82783 15.4298C6.91527 15.6855 7.07464 15.9063 7.28429 16.0623C7.49395 16.2184 7.74373 16.3021 7.99971 16.3021C8.25569 16.3021 8.50547 16.2184 8.71512 16.0623C8.92477 15.9063 9.08414 15.6855 9.17158 15.4298L10.5735 11.3339L14.4285 9.84442C14.669 9.75151 14.8769 9.58218 15.0238 9.35942C15.1706 9.13667 15.2494 8.87128 15.2494 8.5993C15.2494 8.32732 15.1706 8.06193 15.0238 7.83917C14.8769 7.61642 14.669 7.44709 14.4285 7.35418ZM9.95033 9.87762C9.77888 9.94364 9.62317 10.0489 9.49422 10.1859C9.36527 10.3229 9.26622 10.4883 9.20408 10.6705L7.99971 14.19L6.79533 10.6705C6.73319 10.4883 6.63414 10.3229 6.50519 10.1859C6.37624 10.0489 6.22053 9.94364 6.04908 9.87762L2.73658 8.5993L6.04908 7.31965C6.22053 7.25362 6.37624 7.14838 6.50519 7.01137C6.63414 6.87436 6.73319 6.70893 6.79533 6.52676L7.99971 3.00723L9.20408 6.52676C9.26622 6.70893 9.36527 6.87436 9.49422 7.01137C9.62317 7.14838 9.77888 7.25362 9.95033 7.31965L13.2628 8.5993L9.95033 9.87762Z" fill="#F1F7F5"/>
</svg>
