<svg width="32" height="26" viewBox="0 0 32 26" fill="none" xmlns="http://www.w3.org/2000/svg">
<path d="M6.90601 0.933706C6.77249 0.79747 6.61343 0.68888 6.43792 0.614139C6.26241 0.539399 6.0739 0.499973 5.88315 0.498116C5.6924 0.496258 5.50316 0.532005 5.32623 0.603314C5.1493 0.674623 4.98816 0.780096 4.85201 0.913707C3.31235 2.4452 2.09097 4.26622 1.25824 6.27185C0.425505 8.27748 -0.0021184 10.4281 8.26678e-06 12.5997C-0.00225165 14.8547 0.458862 17.0861 1.35475 19.1555C2.25063 21.2249 3.56217 23.0882 5.20801 24.6297C5.48505 24.8858 5.85099 25.0238 6.22815 25.0145C6.60531 25.0052 6.96398 24.8492 7.22801 24.5797C7.86001 23.9477 7.78201 22.9417 7.17401 22.3597C5.85301 21.1008 4.80179 19.5864 4.08424 17.9086C3.3667 16.2307 2.99781 14.4245 3.00001 12.5997C3.00001 8.90771 4.48201 5.55971 6.88601 3.12371C7.46601 2.53371 7.52601 1.55371 6.90601 0.933706ZM10.428 4.45971C10.1646 4.18868 9.80451 4.03312 9.42662 4.02713C9.04873 4.02113 8.68388 4.16518 8.41201 4.42771C7.32964 5.49542 6.47054 6.76782 5.88476 8.17082C5.29898 9.57381 4.99822 11.0793 5.00001 12.5997C5.00001 15.9837 6.46001 19.0257 8.78601 21.1297C9.06075 21.372 9.41819 21.4992 9.78421 21.4851C10.1502 21.4709 10.4968 21.3165 10.752 21.0537C11.408 20.3977 11.286 19.3657 10.67 18.7857C9.82591 17.9918 9.15349 17.0332 8.69427 15.9693C8.23505 14.9053 7.99877 13.7585 8.00001 12.5997C8.00001 10.2997 8.91401 8.21171 10.4 6.67971C10.972 6.09171 11.066 5.09571 10.428 4.45971ZM21.572 4.45771C21.8354 4.18668 22.1955 4.03112 22.5734 4.02513C22.9513 4.01913 23.3161 4.16318 23.588 4.42571C24.6706 5.49365 25.5299 6.76638 26.1156 8.16974C26.7014 9.57309 27.0021 11.079 27 12.5997C27 15.9837 25.54 19.0257 23.214 21.1297C22.9393 21.372 22.5818 21.4992 22.2158 21.4851C21.8498 21.4709 21.5032 21.3165 21.248 21.0537C20.592 20.3977 20.714 19.3657 21.33 18.7857C22.1741 17.9918 22.8465 17.0332 23.3057 15.9693C23.765 14.9053 24.0012 13.7585 24 12.5997C24 10.2997 23.086 8.21171 21.6 6.67971C21.028 6.09171 20.934 5.09371 21.572 4.45771ZM25.094 0.933706C25.2275 0.79747 25.3866 0.68888 25.5621 0.614139C25.7376 0.539399 25.9261 0.499973 26.1169 0.498116C26.3076 0.496258 26.4969 0.532005 26.6738 0.603314C26.8507 0.674623 27.0119 0.780096 27.148 0.913707C28.6877 2.4452 29.909 4.26622 30.7418 6.27185C31.5745 8.27748 32.0021 10.4281 32 12.5997C32.0023 14.8547 31.5412 17.0861 30.6453 19.1555C29.7494 21.2249 28.4378 23.0882 26.792 24.6297C26.515 24.8858 26.149 25.0238 25.7719 25.0145C25.3947 25.0052 25.036 24.8492 24.772 24.5797C24.14 23.9477 24.218 22.9417 24.828 22.3597C26.1486 21.1006 27.1995 19.5861 27.9167 17.9083C28.6339 16.2305 29.0025 14.4244 29 12.5997C29 8.90771 27.518 5.55971 25.114 3.12371C24.534 2.53371 24.474 1.55371 25.094 0.933706ZM16 9.59971C15.2044 9.59971 14.4413 9.91578 13.8787 10.4784C13.3161 11.041 13 11.8041 13 12.5997C13 13.3954 13.3161 14.1584 13.8787 14.721C14.4413 15.2836 15.2044 15.5997 16 15.5997C16.7957 15.5997 17.5587 15.2836 18.1213 14.721C18.6839 14.1584 19 13.3954 19 12.5997C19 11.8041 18.6839 11.041 18.1213 10.4784C17.5587 9.91578 16.7957 9.59971 16 9.59971Z" fill="#B1DBCD"/>
</svg>
