<svg width="43" height="31" viewBox="0 0 43 31" fill="none" xmlns="http://www.w3.org/2000/svg">
<path d="M8.81198 0.868403C9.10458 1.16137 9.26894 1.55851 9.26894 1.97257C9.26894 2.38663 9.10458 2.78377 8.81198 3.07674C7.16755 4.72111 5.86312 6.67329 4.97315 8.8218C4.08319 10.9703 3.62514 13.2731 3.62514 15.5986C3.62514 17.9242 4.08319 20.2269 4.97315 22.3754C5.86312 24.5239 7.16755 26.4761 8.81198 28.1205C9.09647 28.4153 9.25377 28.8101 9.25002 29.2198C9.24627 29.6294 9.08176 30.0213 8.79192 30.3108C8.50208 30.6004 8.11011 30.7645 7.70042 30.7679C7.29074 30.7713 6.89612 30.6136 6.60156 30.3288C-1.53385 22.1934 -1.53385 9.00382 6.60156 0.868403C6.89453 0.575798 7.29167 0.411445 7.70573 0.411445C8.11979 0.411445 8.51901 0.575798 8.81198 0.868403ZM36.062 0.868403C44.1974 9.00382 44.1974 22.1955 36.062 30.3309C35.7658 30.6069 35.374 30.7572 34.9692 30.75C34.5644 30.7429 34.1782 30.5789 33.8919 30.2926C33.6057 30.0063 33.4417 29.6201 33.4345 29.2153C33.4274 28.8105 33.5776 28.4188 33.8536 28.1226C35.4984 26.4782 36.8031 24.5258 37.6932 22.3771C38.5834 20.2284 39.0415 17.9254 39.0415 15.5997C39.0415 13.2739 38.5834 10.9709 37.6932 8.82216C36.8031 6.67346 35.4984 4.72115 33.8536 3.07674C33.7001 2.93369 33.577 2.76119 33.4916 2.56952C33.4062 2.37786 33.3603 2.17096 33.3566 1.96116C33.3529 1.75136 33.3915 1.54297 33.4701 1.34841C33.5486 1.15385 33.6656 0.977112 33.814 0.82874C33.9624 0.680368 34.1391 0.5634 34.3336 0.484814C34.5282 0.406229 34.7366 0.367635 34.9464 0.371337C35.1562 0.375039 35.3631 0.420959 35.5548 0.506359C35.7464 0.591759 35.9189 0.714889 36.062 0.868403ZM14.7036 6.76007C14.9963 7.05304 15.1606 7.45017 15.1606 7.86424C15.1606 8.2783 14.9963 8.67544 14.7036 8.9684C13.8328 9.83899 13.1419 10.8726 12.6706 12.0102C12.1993 13.1479 11.9567 14.3672 11.9567 15.5986C11.9567 16.83 12.1993 18.0494 12.6706 19.187C13.1419 20.3246 13.8328 21.3582 14.7036 22.2288C14.9796 22.525 15.1299 22.9168 15.1228 23.3216C15.1156 23.7264 14.9516 24.1126 14.6654 24.3989C14.3791 24.6851 13.9929 24.8491 13.5881 24.8563C13.1833 24.8634 12.7915 24.7132 12.4953 24.4372C10.1513 22.093 8.83444 18.9137 8.83444 15.5986C8.83444 12.2836 10.1513 9.10425 12.4953 6.76007C12.7883 6.46747 13.1854 6.30311 13.5995 6.30311C14.0135 6.30311 14.4107 6.46747 14.7036 6.76007ZM30.1724 6.76007C32.5164 9.10425 33.8333 12.2836 33.8333 15.5986C33.8333 18.9137 32.5164 22.093 30.1724 24.4372C30.0283 24.5865 29.856 24.7056 29.6654 24.7875C29.4748 24.8695 29.2698 24.9127 29.0623 24.9146C28.8548 24.9165 28.6491 24.8771 28.457 24.7986C28.265 24.7201 28.0904 24.6042 27.9437 24.4576C27.7969 24.3109 27.6808 24.1365 27.6021 23.9445C27.5235 23.7526 27.4839 23.5468 27.4856 23.3394C27.4873 23.1319 27.5303 22.9268 27.6121 22.7362C27.6939 22.5455 27.8128 22.373 27.962 22.2288C28.8325 21.3583 29.5231 20.3248 29.9943 19.1873C30.4654 18.0499 30.7079 16.8308 30.7079 15.5997C30.7079 14.3685 30.4654 13.1494 29.9943 12.012C29.5231 10.8745 28.8325 9.84104 27.962 8.97049C27.686 8.67429 27.5357 8.28253 27.5429 7.87773C27.55 7.47294 27.714 7.08672 28.0003 6.80044C28.2865 6.51416 28.6728 6.35018 29.0776 6.34304C29.4824 6.3359 29.8741 6.48615 30.1703 6.76215M21.3328 12.4747C22.1616 12.4747 22.9565 12.8039 23.5425 13.3899C24.1286 13.976 24.4578 14.7709 24.4578 15.5997C24.4578 16.4285 24.1286 17.2233 23.5425 17.8094C22.9565 18.3954 22.1616 18.7247 21.3328 18.7247C20.504 18.7247 19.7092 18.3954 19.1231 17.8094C18.5371 17.2233 18.2078 16.4285 18.2078 15.5997C18.2078 14.7709 18.5371 13.976 19.1231 13.3899C19.7092 12.8039 20.504 12.4747 21.3328 12.4747Z" fill="#B1DBCD"/>
</svg>
