<svg width="20" height="21" viewBox="0 0 20 21" fill="none" xmlns="http://www.w3.org/2000/svg">
<path d="M14.584 4.76758C15.2743 4.76758 15.834 5.32722 15.834 6.01758C15.834 6.70793 15.2743 7.26758 14.584 7.26758C13.8936 7.26758 13.334 6.70793 13.334 6.01758C13.334 5.32722 13.8936 4.76758 14.584 4.76758Z" stroke="#F9F9F9" stroke-width="1.25" stroke-linecap="round" stroke-linejoin="round"/>
<path d="M5.83356 12.2672L8.33356 14.7672M2.3119 9.88715C1.47606 10.8205 1.45856 12.2288 2.22523 13.2205C3.71441 15.1536 5.44708 16.8863 7.38023 18.3755C8.3719 19.1422 9.78023 19.1247 10.7136 18.2888C13.2365 16.032 15.6073 13.6106 17.8102 11.0405C18.0326 10.7849 18.1696 10.4661 18.2019 10.1288C18.3386 8.63215 18.6211 4.32049 17.4502 3.15049C16.2794 1.98049 11.9686 2.26215 10.4719 2.39965C10.1346 2.43197 9.81585 2.56891 9.56023 2.79132C6.99013 4.994 4.56872 7.36446 2.3119 9.88715Z" stroke="#F9F9F9" stroke-width="1.25" stroke-linecap="round" stroke-linejoin="round"/>
</svg>
