<svg width="34" height="28" viewBox="0 0 34 28" fill="none" xmlns="http://www.w3.org/2000/svg">
<path d="M22.6938 10.4594L15.1938 5.45937C15.0055 5.33375 14.7866 5.26161 14.5605 5.25065C14.3344 5.2397 14.1096 5.29034 13.91 5.39718C13.7105 5.50402 13.5437 5.66304 13.4274 5.85727C13.3112 6.05149 13.2499 6.27364 13.25 6.5V16.5C13.2499 16.7264 13.3112 16.9485 13.4274 17.1427C13.5437 17.337 13.7105 17.496 13.91 17.6028C14.1096 17.7097 14.3344 17.7603 14.5605 17.7493C14.7866 17.7384 15.0055 17.6663 15.1938 17.5406L22.6938 12.5406C22.8652 12.4265 23.0058 12.2718 23.1031 12.0903C23.2003 11.9087 23.2512 11.706 23.2512 11.5C23.2512 11.294 23.2003 11.0913 23.1031 10.9097C23.0058 10.7282 22.8652 10.5735 22.6938 10.4594ZM15.75 14.1641V8.84375L19.7469 11.5L15.75 14.1641ZM30.75 0.25H3.25C2.58696 0.25 1.95107 0.513392 1.48223 0.982233C1.01339 1.45107 0.75 2.08696 0.75 2.75V20.25C0.75 20.913 1.01339 21.5489 1.48223 22.0178C1.95107 22.4866 2.58696 22.75 3.25 22.75H30.75C31.413 22.75 32.0489 22.4866 32.5178 22.0178C32.9866 21.5489 33.25 20.913 33.25 20.25V2.75C33.25 2.08696 32.9866 1.45107 32.5178 0.982233C32.0489 0.513392 31.413 0.25 30.75 0.25ZM30.75 20.25H3.25V2.75H30.75V20.25ZM33.25 26.5C33.25 26.8315 33.1183 27.1495 32.8839 27.3839C32.6495 27.6183 32.3315 27.75 32 27.75H2C1.66848 27.75 1.35054 27.6183 1.11612 27.3839C0.881696 27.1495 0.75 26.8315 0.75 26.5C0.75 26.1685 0.881696 25.8505 1.11612 25.6161C1.35054 25.3817 1.66848 25.25 2 25.25H32C32.3315 25.25 32.6495 25.3817 32.8839 25.6161C33.1183 25.8505 33.25 26.1685 33.25 26.5Z" fill="#B1DBCD"/>
</svg>
