<svg width="36" height="37" viewBox="0 0 36 37" fill="none" xmlns="http://www.w3.org/2000/svg">
<path d="M34.6654 18.5007C34.6654 9.29565 27.2037 1.83398 17.9987 1.83398C8.7937 1.83398 1.33203 9.29565 1.33203 18.5007C1.33203 27.7057 8.7937 35.1673 17.9987 35.1673C27.2037 35.1673 34.6654 27.7057 34.6654 18.5007Z" stroke="#B1DBCD" stroke-width="2.5" stroke-linecap="round" stroke-linejoin="round"/>
<path d="M31.332 7.99898C29.7737 8.11065 27.7787 8.71565 26.3954 10.5057C23.8954 13.739 21.397 14.0107 19.7304 12.9323C17.2304 11.3157 19.332 8.69398 16.3987 7.27065C14.487 6.34232 14.2204 3.81732 15.2854 1.83398M1.33203 16.834C2.6037 17.9373 4.38203 18.9473 6.48036 18.9473C10.8137 18.9473 11.6804 19.7757 11.6804 23.0873C11.6804 26.399 11.6804 26.399 12.547 28.8823C13.1104 30.499 13.307 32.1123 12.1837 33.5007M34.6654 20.9207C33.187 20.0707 31.332 19.719 29.4537 21.0673C25.862 23.6507 23.3837 21.5107 22.2687 23.649C20.627 26.7957 26.492 27.784 21.332 35.1673" stroke="#B1DBCD" stroke-width="2.5" stroke-linecap="round" stroke-linejoin="round"/>
</svg>
