<svg width="19" height="18" viewBox="0 0 19 18" fill="none" xmlns="http://www.w3.org/2000/svg">
<path d="M9.5 4.72852C11.9609 4.72852 13.9922 6.75977 13.9922 9.2207C13.9922 11.7207 11.9609 13.7129 9.5 13.7129C7 13.7129 5.00781 11.7207 5.00781 9.2207C5.00781 6.75977 7 4.72852 9.5 4.72852ZM9.5 12.1504C11.1016 12.1504 12.3906 10.8613 12.3906 9.2207C12.3906 7.61914 11.1016 6.33008 9.5 6.33008C7.85938 6.33008 6.57031 7.61914 6.57031 9.2207C6.57031 10.8613 7.89844 12.1504 9.5 12.1504ZM15.2031 4.57227C15.2031 5.1582 14.7344 5.62695 14.1484 5.62695C13.5625 5.62695 13.0938 5.1582 13.0938 4.57227C13.0938 3.98633 13.5625 3.51758 14.1484 3.51758C14.7344 3.51758 15.2031 3.98633 15.2031 4.57227ZM18.1719 5.62695C18.25 7.07227 18.25 11.4082 18.1719 12.8535C18.0938 14.2598 17.7812 15.4707 16.7656 16.5254C15.75 17.541 14.5 17.8535 13.0938 17.9316C11.6484 18.0098 7.3125 18.0098 5.86719 17.9316C4.46094 17.8535 3.25 17.541 2.19531 16.5254C1.17969 15.4707 0.867188 14.2598 0.789062 12.8535C0.710938 11.4082 0.710938 7.07227 0.789062 5.62695C0.867188 4.2207 1.17969 2.9707 2.19531 1.95508C3.25 0.939453 4.46094 0.626953 5.86719 0.548828C7.3125 0.470703 11.6484 0.470703 13.0938 0.548828C14.5 0.626953 15.75 0.939453 16.7656 1.95508C17.7812 2.9707 18.0938 4.2207 18.1719 5.62695ZM16.2969 14.377C16.7656 13.2441 16.6484 10.5098 16.6484 9.2207C16.6484 7.9707 16.7656 5.23633 16.2969 4.06445C15.9844 3.32227 15.3984 2.69727 14.6562 2.42383C13.4844 1.95508 10.75 2.07227 9.5 2.07227C8.21094 2.07227 5.47656 1.95508 4.34375 2.42383C3.5625 2.73633 2.97656 3.32227 2.66406 4.06445C2.19531 5.23633 2.3125 7.9707 2.3125 9.2207C2.3125 10.5098 2.19531 13.2441 2.66406 14.377C2.97656 15.1582 3.5625 15.7441 4.34375 16.0566C5.47656 16.5254 8.21094 16.4082 9.5 16.4082C10.75 16.4082 13.4844 16.5254 14.6562 16.0566C15.3984 15.7441 16.0234 15.1582 16.2969 14.377Z" fill="#F1F7F5"/>
</svg>
