<svg width="19" height="18" viewBox="0 0 19 18" fill="none" xmlns="http://www.w3.org/2000/svg">
<path d="M4.65625 17.7207H1.02344V6.04102H4.65625V17.7207ZM2.82031 4.47852C1.6875 4.47852 0.75 3.50195 0.75 2.33008C0.75 1.19727 1.6875 0.259766 2.82031 0.259766C3.99219 0.259766 4.92969 1.19727 4.92969 2.33008C4.92969 3.50195 3.99219 4.47852 2.82031 4.47852ZM18.2109 17.7207H14.6172V12.0566C14.6172 10.6895 14.5781 8.9707 12.7031 8.9707C10.8281 8.9707 10.5547 10.416 10.5547 11.9395V17.7207H6.92188V6.04102H10.3984V7.64258H10.4375C10.9453 6.74414 12.1172 5.76758 13.875 5.76758C17.5469 5.76758 18.25 8.18945 18.25 11.3145V17.7207H18.2109Z" fill="#F1F7F5"/>
</svg>
