<svg width="18" height="21" viewBox="0 0 18 21" fill="none" xmlns="http://www.w3.org/2000/svg">
<path d="M17.75 8.42383H17.7109C15.9141 8.42383 14.2734 7.87695 12.9453 6.90039V13.8926C12.9453 17.4082 10.0938 20.2207 6.57812 20.2207C3.0625 20.2207 0.25 17.4082 0.25 13.8926C0.25 10.377 3.0625 7.52539 6.57812 7.52539C6.89062 7.52539 7.16406 7.56445 7.47656 7.60352V11.1191C7.16406 11.002 6.89062 10.9629 6.57812 10.9629C4.97656 10.9629 3.64844 12.291 3.64844 13.8926C3.64844 15.4941 4.97656 16.8223 6.57812 16.8223C8.17969 16.8223 9.50781 15.4941 9.50781 13.8926V0.220703H12.9453C12.9453 0.259766 12.9453 0.259766 12.9453 0.298828C12.9453 0.572266 12.9453 0.845703 13.0234 1.11914C13.2578 2.4082 14.0391 3.54102 15.1328 4.24414C15.875 4.75195 16.7734 5.02539 17.7109 5.02539C17.7109 5.02539 17.7109 5.02539 17.75 5.02539V8.42383Z" fill="#F1F7F5"/>
</svg>
