<svg width="20" height="17" viewBox="0 0 20 17" fill="none" xmlns="http://www.w3.org/2000/svg">
<path d="M17.9297 4.1582C17.9297 4.35352 17.9297 4.50977 17.9297 4.70508C17.9297 10.1348 13.8281 16.3457 6.28906 16.3457C3.94531 16.3457 1.79688 15.6816 0 14.5098C0.3125 14.5488 0.625 14.5879 0.976562 14.5879C2.89062 14.5879 4.64844 13.9238 6.05469 12.8301C4.25781 12.791 2.73438 11.6191 2.22656 9.97852C2.5 10.0176 2.73438 10.0566 3.00781 10.0566C3.35938 10.0566 3.75 9.97852 4.0625 9.90039C2.1875 9.50977 0.78125 7.86914 0.78125 5.87695V5.83789C1.32812 6.15039 1.99219 6.30664 2.65625 6.3457C1.52344 5.60352 0.820312 4.35352 0.820312 2.94727C0.820312 2.16602 1.01562 1.46289 1.36719 0.876953C3.39844 3.33789 6.44531 4.97852 9.84375 5.17383C9.76562 4.86133 9.72656 4.54883 9.72656 4.23633C9.72656 1.9707 11.5625 0.134766 13.8281 0.134766C15 0.134766 16.0547 0.603516 16.8359 1.42383C17.7344 1.22852 18.6328 0.876953 19.4141 0.408203C19.1016 1.38477 18.4766 2.16602 17.6172 2.67383C18.4375 2.5957 19.2578 2.36133 19.9609 2.04883C19.4141 2.86914 18.7109 3.57227 17.9297 4.1582Z" fill="#F1F7F5"/>
</svg>
