<svg width="23" height="16" viewBox="0 0 23 16" fill="none" xmlns="http://www.w3.org/2000/svg">
<path d="M21.6953 3.10352C22.1641 4.74414 22.1641 8.25977 22.1641 8.25977C22.1641 8.25977 22.1641 11.7363 21.6953 13.416C21.4609 14.3535 20.7188 15.0566 19.8203 15.291C18.1406 15.7207 11.5 15.7207 11.5 15.7207C11.5 15.7207 4.82031 15.7207 3.14062 15.291C2.24219 15.0566 1.5 14.3535 1.26562 13.416C0.796875 11.7363 0.796875 8.25977 0.796875 8.25977C0.796875 8.25977 0.796875 4.74414 1.26562 3.10352C1.5 2.16602 2.24219 1.42383 3.14062 1.18945C4.82031 0.720703 11.5 0.720703 11.5 0.720703C11.5 0.720703 18.1406 0.720703 19.8203 1.18945C20.7188 1.42383 21.4609 2.16602 21.6953 3.10352ZM9.3125 11.4238L14.8594 8.25977L9.3125 5.0957V11.4238Z" fill="#F1F7F5"/>
</svg>
