<svg width="350" height="197" viewBox="0 0 350 197" fill="none" xmlns="http://www.w3.org/2000/svg">
<path d="M274.659 73.5392L288.121 74.0988L274.674 77.049L257.616 73.7089L257.005 73.5893L257.02 74.2115L257.098 77.5187L251.96 104.714L246.985 106.653L237.02 101.651V95.7596V95.5313L236.847 95.3818L220.794 81.4634L222.049 60.5925L224.625 57.4783L224.016 56.7124L219.216 59.1124L218.975 59.2327L218.943 59.4996L216.657 78.421L204.574 83.9266L204.979 74.5011L204.987 74.3131L204.869 74.1665L188.869 54.2465L188.044 54.8047L200.766 77.4259L199.702 87.5876L199.686 87.748L199.766 87.8881L210.727 107.03L210.241 112.114L187.203 132.307L178.14 132.66L178.069 132.663L178.002 132.685L171.616 134.801L171.602 134.805L163.123 137.345L167.875 125.32L170.786 123.846L170.8 123.838L170.813 123.83L172.915 122.592L184.514 123.658L184.869 123.69L185.016 123.365L189.656 113.045L189.778 112.772L189.596 112.535L186.036 107.895L185.971 107.81L185.876 107.759L171.353 99.9604L165.011 92.9054L164.177 93.4286L168.097 103.029L168.166 103.198L168.329 103.283L176.692 107.639L136.056 116.23L136.025 116.237L135.994 116.248L116.216 123.192L112.454 109.87L110.658 88.5576L109.66 88.5708L108.22 113.491L108.217 113.55L108.227 113.608L110.679 127.328L101.589 146.216L80.7582 155.382L80.6517 155.429L80.5768 155.518L74.8968 162.278L74.7796 162.417V162.6V179.32V179.463L74.8551 179.584L84.3394 194.82H68.9316L67.2104 185.984L67.1869 185.864L67.1105 185.768L64.3796 182.345V158.033L69.5584 140.824L69.6023 140.678L69.5574 140.532L64.3963 123.778L68.7279 104.147L68.9905 102.957L67.9676 103.62L42.8493 119.903L28.5029 112.615L37.8842 75.763L37.9727 75.4153L37.6717 75.2201L29.5917 69.9801L29.3284 69.8094L29.0602 69.9722L17.6602 76.8922L17.6308 76.91L3.79735 73.0881L33.0078 67.4977L41.6113 75.3364L34.3104 109.936L34.2169 110.379L34.6486 110.516L44.3686 113.596L44.6429 113.683L44.8559 113.49L72.0559 88.7696L72.1737 88.6626L72.2079 88.5071L73.5723 82.3091L166.162 2.1548L234.072 21.5972L253.596 45.4868L256.127 52.8423L256.194 53.0369L256.378 53.1279L275.418 62.5279L275.51 62.5732L275.612 62.5788L285.547 63.1274L275.609 65.81L258.591 63.3448L258.272 64.2741L274.432 73.4741L274.538 73.5341L274.659 73.5392Z" fill="#1D1D1D" stroke="url(#paint0_radial_466_2221)"/>
<path d="M331.059 73.5392L344.521 74.0988L331.074 77.049L314.016 73.7089L313.405 73.5893L313.42 74.2115L313.499 77.5187L308.36 104.714L303.386 106.653L293.42 101.651V95.7596V95.5313L293.248 95.3818L277.194 81.4634L278.449 60.5925L281.025 57.4783L280.416 56.7124L275.616 59.1124L275.376 59.2327L275.344 59.4996L273.057 78.421L260.975 83.9266L261.38 74.5011L261.388 74.3131L261.27 74.1665L245.27 54.2465L244.444 54.8047L257.166 77.4259L256.103 87.5876L256.086 87.748L256.166 87.8881L267.127 107.03L266.641 112.114L243.604 132.307L234.541 132.66L234.47 132.663L234.403 132.685L228.017 134.801L228.003 134.805L219.524 137.345L224.275 125.32L227.186 123.846L227.2 123.838L227.214 123.83L229.315 122.592L240.914 123.658L241.27 123.69L241.416 123.365L246.056 113.045L246.178 112.772L245.997 112.535L242.437 107.895L242.371 107.81L242.277 107.759L227.753 99.9604L221.412 92.9054L220.577 93.4286L224.497 103.029L224.566 103.198L224.729 103.283L233.092 107.639L192.457 116.23L192.425 116.237L192.394 116.248L172.617 123.192L168.854 109.87L167.058 88.5576L166.061 88.5708L164.621 113.491L164.617 113.55L164.628 113.608L167.079 127.328L157.99 146.216L137.159 155.382L137.052 155.429L136.977 155.518L131.297 162.278L131.18 162.417V162.6V179.32V179.463L131.256 179.584L140.74 194.82H125.332L123.611 185.984L123.587 185.864L123.511 185.768L120.78 182.345V158.033L125.959 140.824L126.003 140.678L125.958 140.532L120.797 123.778L125.128 104.147L125.391 102.957L124.368 103.62L99.2497 119.903L84.9033 112.615L94.2845 75.763L94.373 75.4153L94.0721 75.2201L85.9921 69.9801L85.7288 69.8094L85.4606 69.9722L74.0606 76.8922L74.0312 76.91L60.1977 73.0881L89.4082 67.4977L98.0117 75.3364L90.7108 109.936L90.6173 110.379L91.049 110.516L100.769 113.596L101.043 113.683L101.256 113.49L128.456 88.7696L128.574 88.6626L128.608 88.5071L129.973 82.3091L222.563 2.1548L290.472 21.5972L309.996 45.4868L312.527 52.8423L312.594 53.0369L312.779 53.1279L331.819 62.5279L331.91 62.5732L332.012 62.5788L341.947 63.1274L332.009 65.81L314.992 63.3448L314.673 64.2741L330.833 73.4741L330.938 73.5341L331.059 73.5392Z" fill="#1D1D1D" stroke="url(#paint1_radial_466_2221)"/>
<defs>
<radialGradient id="paint0_radial_466_2221" cx="0" cy="0" r="1" gradientUnits="userSpaceOnUse" gradientTransform="translate(146.8 98.4596) rotate(90) scale(96.86 145.2)">
<stop stop-color="#19BC85"/>
<stop offset="1" stop-color="#073828"/>
</radialGradient>
<radialGradient id="paint1_radial_466_2221" cx="0" cy="0" r="1" gradientUnits="userSpaceOnUse" gradientTransform="translate(203.2 98.4596) rotate(90) scale(96.86 145.2)">
<stop stop-color="#19BC85"/>
<stop offset="1" stop-color="#073828"/>
</radialGradient>
</defs>
</svg>
