<svg width="20" height="21" viewBox="0 0 20 21" fill="none" xmlns="http://www.w3.org/2000/svg">
<path d="M11.0875 19.0703L10 18.4453L12.5 14.0703H16.25C16.5815 14.0703 16.8995 13.9386 17.1339 13.7042C17.3683 13.4698 17.5 13.1518 17.5 12.8203V5.32031C17.5 4.98879 17.3683 4.67085 17.1339 4.43643C16.8995 4.20201 16.5815 4.07031 16.25 4.07031H3.75C3.41848 4.07031 3.10054 4.20201 2.86612 4.43643C2.6317 4.67085 2.5 4.98879 2.5 5.32031V12.8203C2.5 13.1518 2.6317 13.4698 2.86612 13.7042C3.10054 13.9386 3.41848 14.0703 3.75 14.0703H9.375V15.3203H3.75C3.08696 15.3203 2.45107 15.0569 1.98223 14.5881C1.51339 14.1192 1.25 13.4834 1.25 12.8203V5.32031C1.25 4.65727 1.51339 4.02139 1.98223 3.55255C2.45107 3.0837 3.08696 2.82031 3.75 2.82031H16.25C16.913 2.82031 17.5489 3.0837 18.0178 3.55255C18.4866 4.02139 18.75 4.65727 18.75 5.32031V12.8203C18.75 13.4834 18.4866 14.1192 18.0178 14.5881C17.5489 15.0569 16.913 15.3203 16.25 15.3203H13.225L11.0875 19.0703Z" fill="#F1F7F5"/>
<path d="M5 6.57031H15V7.82031H5V6.57031ZM5 10.3203H11.25V11.5703H5V10.3203Z" fill="#F1F7F5"/>
</svg>
