<svg width="130" height="122" viewBox="0 0 130 122" fill="none" xmlns="http://www.w3.org/2000/svg">
<path d="M89.166 19.9815V7.80566L106.399 9.67886V37.4022L89.166 19.9815Z" fill="url(#paint0_linear_956_14936)" fill-opacity="0.1"/>
<g filter="url(#filter0_bii_956_14936)">
<path d="M66.5054 19.2621C66.1022 18.8764 65.5657 18.6611 65.0077 18.6611C64.4497 18.6611 63.9132 18.8764 63.51 19.2621L13.6497 66.8935C13.438 67.096 13.2695 67.3394 13.1545 67.609C13.0396 67.8785 12.9804 68.1686 12.9808 68.4616L12.9727 113.165C12.9727 115.464 13.8857 117.668 15.5111 119.293C17.1364 120.919 19.3408 121.832 21.6393 121.832H47.6663C48.8156 121.832 49.9178 121.375 50.7304 120.563C51.5431 119.75 51.9996 118.648 51.9996 117.499V80.6653C51.9996 80.0907 52.2279 79.5396 52.6342 79.1332C53.0406 78.7269 53.5917 78.4986 54.1663 78.4986H75.8329C76.4075 78.4986 76.9586 78.7269 77.365 79.1332C77.7713 79.5396 77.9996 80.0907 77.9996 80.6653V117.499C77.9996 118.648 78.4561 119.75 79.2688 120.563C80.0814 121.375 81.1836 121.832 82.3329 121.832H108.349C110.648 121.832 112.852 120.919 114.477 119.293C116.103 117.668 117.016 115.464 117.016 113.165V68.4616C117.016 68.1686 116.957 67.8785 116.842 67.609C116.727 67.3394 116.559 67.096 116.347 66.8935L66.5054 19.2621Z" fill="url(#paint1_linear_956_14936)" fill-opacity="0.15"/>
<path d="M66.2462 19.5331L66.2463 19.5332L116.088 67.1644C116.263 67.332 116.402 67.5332 116.497 67.7561C116.592 67.979 116.641 68.2188 116.641 68.4612V68.4616V113.165C116.641 115.364 115.767 117.473 114.212 119.028C112.657 120.583 110.548 121.457 108.349 121.457H82.3329C81.2831 121.457 80.2763 121.04 79.5339 120.298C78.7916 119.555 78.3746 118.548 78.3746 117.499V80.6653C78.3746 79.9912 78.1068 79.3447 77.6301 78.8681C77.1535 78.3914 76.507 78.1236 75.8329 78.1236H54.1663C53.4922 78.1236 52.8457 78.3914 52.3691 78.8681C51.8924 79.3447 51.6246 79.9912 51.6246 80.6653V117.499C51.6246 118.548 51.2076 119.555 50.4653 120.298C49.7229 121.04 48.7161 121.457 47.6663 121.457H21.6393C19.4402 121.457 17.3312 120.583 15.7762 119.028C14.2212 117.473 13.3477 115.364 13.3477 113.165L13.3558 68.4617L13.3558 68.4612C13.3555 68.2188 13.4044 67.979 13.4995 67.7561C13.5945 67.5332 13.7339 67.3319 13.909 67.1644L63.7691 19.5333L63.7692 19.5331C64.1027 19.2142 64.5463 19.0361 65.0077 19.0361C65.4692 19.0361 65.9128 19.2142 66.2462 19.5331ZM117.016 113.165V68.4616H12.9808L12.9727 113.165C12.9727 115.464 13.8857 117.668 15.5111 119.293C17.1364 120.919 19.3408 121.832 21.6393 121.832H47.6663C48.8156 121.832 49.9178 121.375 50.7304 120.563C51.5431 119.75 51.9996 118.648 51.9996 117.499V80.6653C51.9996 80.0907 52.2279 79.5396 52.6342 79.1332C53.0406 78.7269 53.5917 78.4986 54.1663 78.4986H75.8329C76.4075 78.4986 76.9586 78.7269 77.365 79.1332C77.7713 79.5396 77.9996 80.0907 77.9996 80.6653V117.499C77.9996 118.648 78.4561 119.75 79.2688 120.563C80.0814 121.375 81.1836 121.832 82.3329 121.832H108.349C110.648 121.832 112.852 120.919 114.477 119.293C116.103 117.668 117.016 115.464 117.016 113.165Z" stroke="white" stroke-opacity="0.2" stroke-width="0.75"/>
<path d="M128.621 57.9571L108.363 38.5764V9.16664C108.363 8.01738 107.906 6.91518 107.094 6.10252C106.281 5.28987 105.179 4.83332 104.03 4.83332H91.0297C89.8804 4.83332 88.7782 5.28987 87.9655 6.10252C87.1529 6.91518 86.6963 8.01738 86.6963 9.16664V17.8333L71.0097 2.83458C69.5418 1.35041 67.3589 0.5 64.9999 0.5C62.6491 0.5 60.4716 1.35041 59.0037 2.83729L1.3976 57.9517C-0.28698 59.5767 -0.498229 62.2498 1.03468 64.0103C1.41962 64.4546 1.89095 64.816 2.41999 65.0724C2.94903 65.3288 3.52471 65.4749 4.11199 65.5017C4.69928 65.5286 5.28589 65.4357 5.83612 65.2286C6.38635 65.0216 6.8887 64.7047 7.31258 64.2973L63.5104 10.5966C63.9136 10.2109 64.4501 9.99564 65.0081 9.99564C65.5661 9.99564 66.1026 10.2109 66.5058 10.5966L122.709 64.2973C123.537 65.0913 124.646 65.5246 125.793 65.5022C126.939 65.4799 128.031 65.0037 128.827 64.1782C130.49 62.4557 130.352 59.6119 128.621 57.9571Z" fill="white" fill-opacity="0.08"/>
<path d="M128.621 57.9571L108.363 38.5764V9.16664C108.363 8.01738 107.906 6.91518 107.094 6.10252C106.281 5.28987 105.179 4.83332 104.03 4.83332H91.0297C89.8804 4.83332 88.7782 5.28987 87.9655 6.10252C87.1529 6.91518 86.6963 8.01738 86.6963 9.16664V17.8333L71.0097 2.83458C69.5418 1.35041 67.3589 0.5 64.9999 0.5C62.6491 0.5 60.4716 1.35041 59.0037 2.83729L1.3976 57.9517C-0.28698 59.5767 -0.498229 62.2498 1.03468 64.0103C1.41962 64.4546 1.89095 64.816 2.41999 65.0724C2.94903 65.3288 3.52471 65.4749 4.11199 65.5017C4.69928 65.5286 5.28589 65.4357 5.83612 65.2286C6.38635 65.0216 6.8887 64.7047 7.31258 64.2973L63.5104 10.5966C63.9136 10.2109 64.4501 9.99564 65.0081 9.99564C65.5661 9.99564 66.1026 10.2109 66.5058 10.5966L122.709 64.2973C123.537 65.0913 124.646 65.5246 125.793 65.5022C126.939 65.4799 128.031 65.0037 128.827 64.1782C130.49 62.4557 130.352 59.6119 128.621 57.9571Z" fill="url(#paint2_linear_956_14936)" fill-opacity="0.1"/>
<path d="M107.988 38.5764V38.7366L108.104 38.8473L128.362 58.2281L128.621 57.9571L128.362 58.2282C129.952 59.7482 130.067 62.3538 128.557 63.9177L128.557 63.9178C127.83 64.672 126.833 65.1069 125.785 65.1273C124.738 65.1477 123.725 64.7519 122.969 64.0267L122.968 64.0262L66.765 10.3257C66.7649 10.3256 66.7649 10.3256 66.7648 10.3255C66.2918 9.87313 65.6626 9.62064 65.0081 9.62064C64.3535 9.62064 63.7242 9.87318 63.2511 10.3257L7.05351 64.0262L7.05274 64.027C6.66554 64.3991 6.20666 64.6885 5.70405 64.8776L5.83612 65.2286L5.70404 64.8776C5.20143 65.0668 4.66559 65.1517 4.12912 65.1271C3.59266 65.1026 3.0668 64.9692 2.58354 64.7349C2.10029 64.5007 1.66974 64.1706 1.31812 63.7647L1.31749 63.764C-0.0740962 62.1659 0.105878 59.7197 1.65705 58.2225C1.65735 58.2222 1.65765 58.2219 1.65795 58.2216L59.2629 3.10825L59.2631 3.10836L59.2706 3.10074C60.6591 1.69425 62.736 0.875 64.9999 0.875C67.2725 0.875 69.3547 1.69456 70.7431 3.09828L70.743 3.09838L70.7506 3.10562L86.4372 18.1043L87.0713 18.7107V17.8333V9.16664C87.0713 8.11683 87.4884 7.11002 88.2307 6.36769C88.973 5.62536 89.9799 5.20832 91.0297 5.20832H104.03C105.079 5.20832 106.086 5.62536 106.829 6.36769C107.571 7.11002 107.988 8.11683 107.988 9.16664V38.5764Z" stroke="white" stroke-opacity="0.2" stroke-width="0.75"/>
</g>
<circle cx="64.813" cy="51.4507" r="5.6196" fill="#CACACA" fill-opacity="0.18"/>
<defs>
<filter id="filter0_bii_956_14936" x="-43.1239" y="-42.6239" width="216.248" height="207.58" filterUnits="userSpaceOnUse" color-interpolation-filters="sRGB">
<feFlood flood-opacity="0" result="BackgroundImageFix"/>
<feGaussianBlur in="BackgroundImageFix" stdDeviation="21.562"/>
<feComposite in2="SourceAlpha" operator="in" result="effect1_backgroundBlur_956_14936"/>
<feBlend mode="normal" in="SourceGraphic" in2="effect1_backgroundBlur_956_14936" result="shape"/>
<feColorMatrix in="SourceAlpha" type="matrix" values="0 0 0 0 0 0 0 0 0 0 0 0 0 0 0 0 0 0 127 0" result="hardAlpha"/>
<feOffset dy="2.00576"/>
<feGaussianBlur stdDeviation="1.00288"/>
<feComposite in2="hardAlpha" operator="arithmetic" k2="-1" k3="1"/>
<feColorMatrix type="matrix" values="0 0 0 0 1 0 0 0 0 1 0 0 0 0 1 0 0 0 0.15 0"/>
<feBlend mode="normal" in2="shape" result="effect2_innerShadow_956_14936"/>
<feColorMatrix in="SourceAlpha" type="matrix" values="0 0 0 0 0 0 0 0 0 0 0 0 0 0 0 0 0 0 127 0" result="hardAlpha"/>
<feOffset/>
<feGaussianBlur stdDeviation="17.049"/>
<feComposite in2="hardAlpha" operator="arithmetic" k2="-1" k3="1"/>
<feColorMatrix type="matrix" values="0 0 0 0 1 0 0 0 0 1 0 0 0 0 1 0 0 0 0.05 0"/>
<feBlend mode="normal" in2="effect2_innerShadow_956_14936" result="effect3_innerShadow_956_14936"/>
</filter>
<linearGradient id="paint0_linear_956_14936" x1="97.7827" y1="7.80566" x2="97.7827" y2="37.4047" gradientUnits="userSpaceOnUse">
<stop offset="0.36" stop-color="white"/>
<stop offset="0.705" stop-color="white" stop-opacity="0"/>
</linearGradient>
<linearGradient id="paint1_linear_956_14936" x1="64.9942" y1="18.6611" x2="64.9942" y2="121.841" gradientUnits="userSpaceOnUse">
<stop offset="0.36" stop-color="white"/>
<stop offset="1" stop-color="white" stop-opacity="0"/>
</linearGradient>
<linearGradient id="paint2_linear_956_14936" x1="65" y1="0.5" x2="65" y2="65.5118" gradientUnits="userSpaceOnUse">
<stop offset="0.36" stop-color="white"/>
<stop offset="0.705" stop-color="white" stop-opacity="0"/>
</linearGradient>
</defs>
</svg>
