<svg width="165" height="26" viewBox="0 0 165 26" fill="none" xmlns="http://www.w3.org/2000/svg">
<g clip-path="url(#clip0_2005_572)">
<path d="M2.14461 10.3699L0.0996094 9.80488L4.04461 9.04988L5.16961 10.0749L4.24961 14.4349L5.46461 14.8199L8.86461 11.7299L9.03961 10.9349L20.6546 0.879883L29.1946 3.32488L31.6546 6.33488L31.9746 7.26488L34.3546 8.43988L35.9846 8.52988L34.3546 8.96988L32.2146 8.65988L34.2346 9.80988L36.3996 9.89988L34.2346 10.3749L32.0896 9.95488L32.0996 10.3749L31.4496 13.8149L30.7696 14.0799L29.4646 13.4249V12.6499L27.4346 10.8899L27.5946 8.22988L27.9296 7.82488L27.3296 8.12488L27.0396 10.5249L25.4046 11.2699L25.4596 9.98988L23.4596 7.49988L25.0596 10.3449L24.9246 11.6349L26.3046 14.0449L26.2396 14.7249L23.3246 17.2799L22.1696 17.3249L21.3696 17.5899L20.1846 17.9449L20.8346 16.2999L21.2196 16.1049L21.4996 15.9399L22.9696 16.0749L23.5496 14.7849L23.1046 14.2049L21.2796 13.2249L20.4796 12.3349L20.9696 13.5349L22.1696 14.1599L16.9196 15.2699L14.3846 16.1599L13.8946 14.4249L13.6696 11.7549L13.4896 14.8699L13.7996 16.6049L12.6446 19.0049L10.0196 20.1599L9.30961 21.0049V23.0949L10.5546 25.0949H8.46461L8.23961 23.9399L7.88461 23.4949V20.4249L8.53461 18.2649L7.88461 16.1549L8.42961 13.6849L5.25961 15.7399L3.38961 14.7899L4.57461 10.1349L3.56461 9.47988L2.13961 10.3449L2.14461 10.3699Z" fill="#F1F7F5"/>
</g>
<path d="M49.84 20L44.92 6H47.08L51.1 18L52.92 12.62L50.6 6H52.74L54.32 10.92L55.9 6H58.06L55.72 12.62L57.54 18L61.56 6H63.72L58.8 20H56.32L54.32 14.26L52.32 20H49.84ZM67.5059 20.24C66.8659 20.24 66.2793 20.1267 65.7459 19.9C65.2126 19.66 64.7859 19.3133 64.4659 18.86C64.1459 18.4067 63.9859 17.86 63.9859 17.22C63.9859 16.46 64.1726 15.8533 64.5459 15.4C64.9326 14.9333 65.4459 14.5933 66.0859 14.38C66.7393 14.1533 67.4526 14.04 68.2259 14.04H70.7459C70.7459 13.4667 70.6526 13.0067 70.4659 12.66C70.2793 12.3 70.0259 12.04 69.7059 11.88C69.3859 11.7067 69.0126 11.62 68.5859 11.62C68.0259 11.62 67.5326 11.7533 67.1059 12.02C66.6926 12.2733 66.4326 12.68 66.3259 13.24H64.1859C64.2526 12.52 64.4926 11.9067 64.9059 11.4C65.3326 10.8933 65.8726 10.5067 66.5259 10.24C67.1793 9.97333 67.8726 9.84 68.6059 9.84C69.5659 9.84 70.3593 10.02 70.9859 10.38C71.6259 10.7267 72.0993 11.2133 72.4059 11.84C72.7259 12.4667 72.8859 13.18 72.8859 13.98V17.02C72.8993 17.4067 72.9793 17.6933 73.1259 17.88C73.2859 18.0533 73.5659 18.1533 73.9659 18.18V20C73.4326 20 72.9659 19.94 72.5659 19.82C72.1793 19.7 71.8593 19.52 71.6059 19.28C71.3526 19.0267 71.1526 18.7067 71.0059 18.32C70.6859 18.8533 70.2193 19.3067 69.6059 19.68C68.9926 20.0533 68.2926 20.24 67.5059 20.24ZM68.0059 18.5C68.5526 18.5 69.0326 18.3667 69.4459 18.1C69.8593 17.82 70.1793 17.46 70.4059 17.02C70.6326 16.5667 70.7459 16.08 70.7459 15.56V15.52H68.3859C67.9993 15.52 67.6326 15.5667 67.2859 15.66C66.9526 15.7533 66.6793 15.9133 66.4659 16.14C66.2659 16.3533 66.1659 16.6533 66.1659 17.04C66.1659 17.5467 66.3459 17.92 66.7059 18.16C67.0659 18.3867 67.4993 18.5 68.0059 18.5ZM76.1955 20V6H78.3155V20H76.1955ZM81.2095 20V6H83.3295V20H81.2095ZM90.1636 20.24C89.3903 20.24 88.6836 20.1067 88.0436 19.84C87.4036 19.56 86.8836 19.1667 86.4836 18.66C86.0836 18.1533 85.8503 17.56 85.7836 16.88H87.9236C88.0169 17.36 88.2636 17.7533 88.6636 18.06C89.0636 18.3667 89.5636 18.52 90.1636 18.52C90.6969 18.52 91.1303 18.4067 91.4636 18.18C91.7969 17.94 91.9636 17.6267 91.9636 17.24C91.9636 16.9067 91.8503 16.6467 91.6236 16.46C91.4103 16.2733 91.1303 16.1267 90.7836 16.02C90.4503 15.9133 90.0836 15.82 89.6836 15.74C89.0703 15.5933 88.4903 15.4133 87.9436 15.2C87.4103 14.9867 86.9769 14.6933 86.6436 14.32C86.3103 13.9467 86.1436 13.4467 86.1436 12.82C86.1436 12.2067 86.3036 11.68 86.6236 11.24C86.9569 10.7867 87.4103 10.44 87.9836 10.2C88.5569 9.96 89.2036 9.84 89.9236 9.84C91.0036 9.84 91.9036 10.1133 92.6236 10.66C93.3436 11.1933 93.7436 11.98 93.8236 13.02H91.7836C91.7303 12.5533 91.5303 12.1933 91.1836 11.94C90.8503 11.6867 90.4169 11.56 89.8836 11.56C89.3903 11.56 88.9903 11.66 88.6836 11.86C88.3769 12.0467 88.2236 12.3333 88.2236 12.72C88.2236 12.9867 88.3303 13.2133 88.5436 13.4C88.7569 13.5733 89.0303 13.72 89.3636 13.84C89.7103 13.9467 90.0703 14.0467 90.4436 14.14C91.1236 14.2867 91.7303 14.4667 92.2636 14.68C92.7969 14.8933 93.2236 15.1933 93.5436 15.58C93.8636 15.9667 94.0303 16.5 94.0436 17.18C94.0436 17.7933 93.8703 18.3333 93.5236 18.8C93.1903 19.2533 92.7303 19.6067 92.1436 19.86C91.5703 20.1133 90.9103 20.24 90.1636 20.24ZM100.216 20C99.2296 20 98.4696 19.76 97.9363 19.28C97.4029 18.8 97.1363 18.0133 97.1363 16.92V11.86H95.6363V10.08H97.1363V7.68H99.2563V10.08H101.776V11.86H99.2563V16.92C99.2563 17.4267 99.3696 17.7667 99.5963 17.94C99.8229 18.1133 100.176 18.2 100.656 18.2H101.776V20H100.216ZM104.279 20V10.08H106.319L106.379 11.76C106.712 11.16 107.166 10.6933 107.739 10.36C108.326 10.0133 109.012 9.84 109.799 9.84V12.06H109.219C108.272 12.06 107.566 12.3067 107.099 12.8C106.632 13.28 106.399 14.02 106.399 15.02V20H104.279ZM116.256 20.24C115.283 20.24 114.423 20.02 113.676 19.58C112.93 19.14 112.343 18.5267 111.916 17.74C111.503 16.9533 111.296 16.0533 111.296 15.04C111.296 13.9867 111.503 13.0733 111.916 12.3C112.33 11.5267 112.91 10.9267 113.656 10.5C114.416 10.06 115.29 9.84 116.276 9.84C117.236 9.84 118.076 10.0533 118.796 10.48C119.516 10.8933 120.076 11.46 120.476 12.18C120.89 12.9 121.096 13.72 121.096 14.64C121.096 14.8267 121.09 14.9867 121.076 15.12C121.076 15.2533 121.063 15.4133 121.036 15.6H113.416C113.456 16.16 113.596 16.66 113.836 17.1C114.076 17.5267 114.403 17.8667 114.816 18.12C115.23 18.36 115.703 18.48 116.236 18.48C116.81 18.48 117.296 18.3533 117.696 18.1C118.11 17.8333 118.416 17.46 118.616 16.98H120.816C120.643 17.58 120.35 18.1267 119.936 18.62C119.536 19.1133 119.03 19.5067 118.416 19.8C117.803 20.0933 117.083 20.24 116.256 20.24ZM113.436 14.1H118.936C118.91 13.3267 118.636 12.72 118.116 12.28C117.596 11.8267 116.963 11.6 116.216 11.6C115.55 11.6 114.943 11.8067 114.396 12.22C113.85 12.6333 113.53 13.26 113.436 14.1ZM128.067 20.24C127.094 20.24 126.234 20.02 125.487 19.58C124.741 19.14 124.154 18.5267 123.727 17.74C123.314 16.9533 123.107 16.0533 123.107 15.04C123.107 13.9867 123.314 13.0733 123.727 12.3C124.141 11.5267 124.721 10.9267 125.467 10.5C126.227 10.06 127.101 9.84 128.087 9.84C129.047 9.84 129.887 10.0533 130.607 10.48C131.327 10.8933 131.887 11.46 132.287 12.18C132.701 12.9 132.907 13.72 132.907 14.64C132.907 14.8267 132.901 14.9867 132.887 15.12C132.887 15.2533 132.874 15.4133 132.847 15.6H125.227C125.267 16.16 125.407 16.66 125.647 17.1C125.887 17.5267 126.214 17.8667 126.627 18.12C127.041 18.36 127.514 18.48 128.047 18.48C128.621 18.48 129.107 18.3533 129.507 18.1C129.921 17.8333 130.227 17.46 130.427 16.98H132.627C132.454 17.58 132.161 18.1267 131.747 18.62C131.347 19.1133 130.841 19.5067 130.227 19.8C129.614 20.0933 128.894 20.24 128.067 20.24ZM125.247 14.1H130.747C130.721 13.3267 130.447 12.72 129.927 12.28C129.407 11.8267 128.774 11.6 128.027 11.6C127.361 11.6 126.754 11.8067 126.207 12.22C125.661 12.6333 125.341 13.26 125.247 14.1ZM138.944 20C137.958 20 137.198 19.76 136.664 19.28C136.131 18.8 135.864 18.0133 135.864 16.92V11.86H134.364V10.08H135.864V7.68H137.984V10.08H140.504V11.86H137.984V16.92C137.984 17.4267 138.098 17.7667 138.324 17.94C138.551 18.1133 138.904 18.2 139.384 18.2H140.504V20H138.944ZM143.987 20.16C143.587 20.16 143.247 20.0267 142.967 19.76C142.701 19.48 142.567 19.1467 142.567 18.76C142.567 18.3733 142.701 18.0467 142.967 17.78C143.247 17.5 143.587 17.36 143.987 17.36C144.374 17.36 144.701 17.5 144.967 17.78C145.247 18.0467 145.387 18.3733 145.387 18.76C145.387 19.1467 145.247 19.48 144.967 19.76C144.701 20.0267 144.374 20.16 143.987 20.16ZM149.026 8.34C148.639 8.34 148.306 8.20667 148.026 7.94C147.759 7.66 147.626 7.32 147.626 6.92C147.626 6.53333 147.759 6.20667 148.026 5.94C148.306 5.67333 148.639 5.54 149.026 5.54C149.426 5.54 149.759 5.67333 150.026 5.94C150.306 6.20667 150.446 6.53333 150.446 6.92C150.446 7.32 150.306 7.66 150.026 7.94C149.759 8.20667 149.426 8.34 149.026 8.34ZM147.966 20V10.08H150.086V20H147.966ZM157.814 20.24C156.854 20.24 155.987 20.0333 155.214 19.62C154.454 19.1933 153.847 18.5867 153.394 17.8C152.954 17.0133 152.734 16.0867 152.734 15.02C152.734 13.9533 152.961 13.0333 153.414 12.26C153.881 11.4867 154.501 10.8933 155.274 10.48C156.061 10.0533 156.934 9.84 157.894 9.84C158.854 9.84 159.721 10.0467 160.494 10.46C161.267 10.8733 161.887 11.4667 162.354 12.24C162.821 13.0133 163.054 13.94 163.054 15.02C163.054 16.0333 162.827 16.9333 162.374 17.72C161.934 18.5067 161.321 19.1267 160.534 19.58C159.747 20.02 158.841 20.24 157.814 20.24ZM157.834 18.4C158.421 18.4 158.941 18.2533 159.394 17.96C159.861 17.6667 160.227 17.2667 160.494 16.76C160.761 16.24 160.894 15.6533 160.894 15C160.894 14.3333 160.761 13.7533 160.494 13.26C160.241 12.7533 159.887 12.3667 159.434 12.1C158.981 11.82 158.454 11.68 157.854 11.68C157.227 11.68 156.687 11.8267 156.234 12.12C155.794 12.4133 155.454 12.8133 155.214 13.32C154.987 13.8133 154.874 14.38 154.874 15.02C154.874 15.7533 155.007 16.3733 155.274 16.88C155.554 17.3867 155.921 17.7667 156.374 18.02C156.827 18.2733 157.314 18.4 157.834 18.4Z" fill="#F1F7F5"/>
<defs>
<clipPath id="clip0_2005_572">
<rect width="36.5" height="24.5" fill="white" transform="translate(0 0.75)"/>
</clipPath>
</defs>
</svg>
