<svg width="22" height="21" viewBox="0 0 22 21" fill="none" xmlns="http://www.w3.org/2000/svg">
<path d="M17.1504 2.25989C17.0189 2.21607 17.0189 2.03043 17.1504 1.98661L17.9221 1.72967C18.0917 1.67311 18.2459 1.57782 18.3723 1.45136C18.4987 1.32489 18.5939 1.17072 18.6504 1.00106L18.9073 0.22983C18.9512 0.0983699 19.1368 0.0983699 19.1807 0.22983L19.4376 1.00146C19.4942 1.17108 19.5895 1.3252 19.716 1.4516C19.8425 1.578 19.9966 1.6732 20.1663 1.72967L20.9376 1.98661C20.9664 1.99606 20.9915 2.01436 21.0093 2.03889C21.027 2.06343 21.0366 2.09295 21.0366 2.12325C21.0366 2.15355 21.027 2.18307 21.0093 2.20761C20.9915 2.23215 20.9664 2.25044 20.9376 2.25989L20.1659 2.51683C19.9963 2.57335 19.8422 2.66858 19.7158 2.79497C19.5894 2.92137 19.4942 3.07546 19.4376 3.24504L19.1807 4.01667C19.1712 4.04546 19.1529 4.07053 19.1284 4.0883C19.1038 4.10607 19.0743 4.11564 19.044 4.11564C19.0137 4.11564 18.9842 4.10607 18.9596 4.0883C18.9351 4.07053 18.9168 4.04546 18.9073 4.01667L18.6504 3.24504C18.5939 3.07546 18.4986 2.92137 18.3722 2.79497C18.2458 2.66858 18.0917 2.57335 17.9221 2.51683L17.1504 2.25989ZM15.1189 3.79877C15.1016 3.79306 15.0866 3.78205 15.076 3.76732C15.0653 3.75259 15.0596 3.73488 15.0596 3.71671C15.0596 3.69853 15.0653 3.68082 15.076 3.66609C15.0866 3.65136 15.1016 3.64036 15.1189 3.63464L15.5818 3.48048C15.7882 3.41156 15.95 3.24982 16.0189 3.04347L16.1731 2.58057C16.1788 2.56332 16.1898 2.54831 16.2045 2.53767C16.2193 2.52703 16.237 2.5213 16.2551 2.5213C16.2733 2.5213 16.291 2.52703 16.3058 2.53767C16.3205 2.54831 16.3315 2.56332 16.3372 2.58057L16.4914 3.04347C16.5253 3.14524 16.5825 3.23772 16.6583 3.31357C16.7342 3.38942 16.8267 3.44657 16.9285 3.48048L17.3914 3.63464C17.4087 3.64035 17.4237 3.65136 17.4343 3.66609C17.445 3.68082 17.4507 3.69853 17.4507 3.71671C17.4507 3.73488 17.445 3.75259 17.4343 3.76732C17.4237 3.78205 17.4087 3.79306 17.3914 3.79877L16.9285 3.95293C16.8267 3.98684 16.7342 4.04399 16.6583 4.11984C16.5825 4.19569 16.5253 4.28817 16.4914 4.38994L16.3372 4.85284C16.3315 4.87009 16.3205 4.8851 16.3058 4.89574C16.291 4.90638 16.2733 4.91211 16.2551 4.91211C16.237 4.91211 16.2193 4.90638 16.2045 4.89574C16.1898 4.8851 16.1788 4.87009 16.1731 4.85284L16.0189 4.38994C15.985 4.28817 15.9278 4.19569 15.852 4.11984C15.7761 4.04399 15.6836 3.98684 15.5818 3.95293L15.1189 3.79877ZM14.701 0.982737C14.6896 0.978805 14.6798 0.971435 14.6728 0.961654C14.6659 0.951873 14.6621 0.940167 14.6621 0.928161C14.6621 0.916156 14.6659 0.904449 14.6728 0.894668C14.6798 0.884887 14.6896 0.877518 14.701 0.873585L15.0093 0.770807C15.1472 0.724996 15.2551 0.61704 15.301 0.479206L15.4037 0.170873C15.4077 0.15953 15.415 0.149693 15.4248 0.142732C15.4346 0.135771 15.4463 0.13203 15.4583 0.13203C15.4703 0.13203 15.482 0.135771 15.4918 0.142732C15.5016 0.149693 15.509 0.15953 15.5129 0.170873L15.6157 0.479206C15.6383 0.547131 15.6764 0.608853 15.727 0.659472C15.7777 0.710091 15.8394 0.748211 15.9073 0.770807L16.2157 0.873585C16.227 0.877518 16.2369 0.884887 16.2438 0.894668C16.2508 0.904449 16.2545 0.916156 16.2545 0.928161C16.2545 0.940167 16.2508 0.951873 16.2438 0.961654C16.2369 0.971435 16.227 0.978805 16.2157 0.982737L15.9073 1.08551C15.8394 1.10811 15.7777 1.14623 15.727 1.19685C15.6764 1.24747 15.6383 1.30919 15.6157 1.37712L15.5129 1.68505C15.509 1.69639 15.5016 1.70623 15.4918 1.71319C15.482 1.72015 15.4703 1.72389 15.4583 1.72389C15.4463 1.72389 15.4346 1.72015 15.4248 1.71319C15.415 1.70623 15.4077 1.69639 15.4037 1.68505L15.301 1.37672C15.2551 1.23889 15.1472 1.13093 15.0093 1.08512L14.701 0.982737Z" fill="#757575"/>
<path d="M18.5166 18.5776L14.2536 14.1701C15.2799 12.7575 15.834 11.0381 15.8321 9.27131C15.8321 4.75846 12.2809 1.08691 7.91606 1.08691C3.55117 1.08691 0 4.75846 0 9.27131C0 13.7842 3.55117 17.4557 7.91606 17.4557C9.6249 17.4576 11.288 16.8848 12.6543 15.8237L16.9172 20.2312C17.133 20.4306 17.4145 20.5371 17.7038 20.5287C17.9931 20.5203 18.2684 20.3977 18.473 20.1861C18.6777 19.9745 18.7962 19.69 18.8043 19.3908C18.8124 19.0917 18.7095 18.8007 18.5166 18.5776ZM2.26173 9.27131C2.26173 8.11508 2.59335 6.98482 3.21466 6.02345C3.83596 5.06208 4.71905 4.31278 5.75224 3.87031C6.78543 3.42784 7.92233 3.31207 9.01916 3.53764C10.116 3.76321 11.1235 4.31999 11.9143 5.13757C12.705 5.95514 13.2436 6.9968 13.4617 8.13081C13.6799 9.26483 13.5679 10.4403 13.14 11.5085C12.712 12.5767 11.9873 13.4897 11.0574 14.1321C10.1276 14.7744 9.03438 15.1173 7.91606 15.1173C6.41699 15.1154 4.97983 14.4989 3.91983 13.403C2.85983 12.3071 2.26353 10.8212 2.26173 9.27131Z" fill="#757575"/>
</svg>
